<?xml version="1.0" encoding="UTF-8" standalone="no"?>
<!DOCTYPE svg PUBLIC "-//W3C//DTD SVG 1.1//EN"
 "http://www.w3.org/Graphics/SVG/1.1/DTD/svg11.dtd">
<!-- Generated by graphviz version 9.0.0 (20230911.1827)
 -->
<!-- Title: iop/arcade Pages: 1 -->
<!--zoomable 142 -->

<svg id="main" version="1.1" xmlns="http://www.w3.org/2000/svg" xmlns:xlink="http://www.w3.org/1999/xlink" xml:space="preserve" onload="init(evt)">
<style type="text/css"><![CDATA[
.node, .edge {opacity: 0.7;}
.node.selected, .edge.selected {opacity: 1;}
.edge:hover path { stroke: red; }
.edge:hover polygon { stroke: red; fill: red; }
]]></style>

<defs>
  <circle id="rim" cx="0" cy="0" r="7"/>
  <circle id="rim2" cx="0" cy="0" r="3.5"/>
  <g id="zoomPlus">
    <use xlink:href="#rim" fill="#404040"><set attributeName="fill" to="#808080" begin="zoomplus.mouseover" end="zoomplus.mouseout"/></use>
    <path d="M-4,0h8M0,-4v8" fill="none" stroke="white" stroke-width="1.5" pointer-events="none"/>
  </g>
  <g id="zoomMin">
    <use xlink:href="#rim" fill="#404040"><set attributeName="fill" to="#808080" begin="zoomminus.mouseover" end="zoomminus.mouseout"/></use>
    <path d="M-4,0h8" fill="none" stroke="white" stroke-width="1.5" pointer-events="none"/>
  </g>
  <g id="arrowUp" transform="translate(30 24)">
    <use xlink:href="#rim"/>
    <path pointer-events="none" fill="none" stroke="white" stroke-width="1.5" d="M0,-3.0v7 M-2.5,-0.5L0,-3.0L2.5,-0.5"/>
  </g>
  <g id="arrowRight" transform="rotate(90) translate(36 -43)">
    <use xlink:href="#rim"/>
    <path pointer-events="none" fill="none" stroke="white" stroke-width="1.5" d="M0,-3.0v7 M-2.5,-0.5L0,-3.0L2.5,-0.5"/>
  </g>
  <g id="arrowDown" transform="rotate(180) translate(-30 -48)">
    <use xlink:href="#rim"/>
    <path pointer-events="none" fill="none" stroke="white" stroke-width="1.5" d="M0,-3.0v7 M-2.5,-0.5L0,-3.0L2.5,-0.5"/>
  </g>
  <g id="arrowLeft" transform="rotate(270) translate(-36 17)">
    <use xlink:href="#rim"/>
    <path pointer-events="none" fill="none" stroke="white" stroke-width="1.5" d="M0,-3.0v7 M-2.5,-0.5L0,-3.0L2.5,-0.5"/>
  </g>
  <g id="resetDef">
    <use xlink:href="#rim2" fill="#404040"><set attributeName="fill" to="#808080" begin="reset.mouseover" end="reset.mouseout"/></use>
  </g>
</defs>
<script type="application/ecmascript">
var viewWidth = 1297;
var viewHeight = 142;
var sectionId = 'dynsection-0';
</script>
<script type="application/ecmascript" xlink:href="svg.min.js"/>
<svg id="graph" class="graph">
<g id="viewport">
<title>iop/arcade</title>
<g id="clust1" class="cluster">
<title>clusterdir_0981ace215aa2029f526b70c145b9fbe</title>
<g id="a_clust1"><a xlink:href="dir_0981ace215aa2029f526b70c145b9fbe.html" target="_top" xlink:title="iop">
<polygon fill="#deebf9" stroke="#404040" stroke-dasharray="5,2" points="8,-8 8,-125.75 1227,-125.75 1227,-8 8,-8"/>
<text text-anchor="middle" x="617.5" y="-112.25" font-family="Helvetica,sans-Serif" font-size="10.00">iop</text>
</a>
</g>
</g>
<g id="clust2" class="cluster">
<title>clusterdir_83706370b12deb47497ed91304cced4b</title>
<g id="a_clust2"><a xlink:href="dir_83706370b12deb47497ed91304cced4b.html" target="_top">
<polygon fill="#deebf9" stroke="#404040" stroke-width="2" points="16,-63.25 16,-98.5 1219,-98.5 1219,-63.25 16,-63.25"/>
</a>
</g>
</g>
<!-- dir_9be0baa3d4a3e9f480a9ee70594037fa -->
<g id="node1" class="node">
<title>dir_9be0baa3d4a3e9f480a9ee70594037fa</title>
<g id="a_node1"><a xlink:href="dir_9be0baa3d4a3e9f480a9ee70594037fa.html" target="_top" xlink:title="kernel">
<polygon fill="#60a2e3" stroke="red" points="609.12,-35.25 566.88,-35.25 566.88,-16 609.12,-16 609.12,-35.25"/>
<text text-anchor="middle" x="588" y="-21.75" font-family="Helvetica,sans-Serif" font-size="10.00">kernel</text>
</a>
</g>
</g>
<!-- dir_6f16cad81de2453a6f48c5e272ba4a18 -->
<g id="node2" class="node">
<title>dir_6f16cad81de2453a6f48c5e272ba4a18</title>
<g id="a_node2"><a xlink:href="dir_6f16cad81de2453a6f48c5e272ba4a18.html" target="_top" xlink:title="dev9">
<polygon fill="#60a2e3" stroke="red" points="988.5,-35.25 951.5,-35.25 951.5,-16 988.5,-16 988.5,-35.25"/>
<text text-anchor="middle" x="970" y="-21.75" font-family="Helvetica,sans-Serif" font-size="10.00">dev9</text>
</a>
</g>
</g>
<!-- dir_f24daea2522ffa8b6dc5fa9cdf5b8f5c -->
<g id="node3" class="node">
<title>dir_f24daea2522ffa8b6dc5fa9cdf5b8f5c</title>
<g id="a_node3"><a xlink:href="dir_f24daea2522ffa8b6dc5fa9cdf5b8f5c.html" target="_top" xlink:title="fs">
<polygon fill="#60a2e3" stroke="red" points="1140.4,-35.25 1111.6,-35.25 1111.6,-16 1140.4,-16 1140.4,-35.25"/>
<text text-anchor="middle" x="1126" y="-21.75" font-family="Helvetica,sans-Serif" font-size="10.00">fs</text>
</a>
</g>
</g>
<!-- dir_83706370b12deb47497ed91304cced4b -->
<g id="node4" class="node">
<title>dir_83706370b12deb47497ed91304cced4b</title>
<text text-anchor="middle" x="1188" y="-77" font-family="Helvetica,sans-Serif" font-size="10.00">arcade</text>
</g>
<!-- dir_c2249c15dcb99f353cb0bb3a93761cbc -->
<g id="node5" class="node">
<title>dir_c2249c15dcb99f353cb0bb3a93761cbc</title>
<g id="a_node5"><a xlink:href="dir_c2249c15dcb99f353cb0bb3a93761cbc.html" target="_top" xlink:title="acata">
<polygon fill="#60a2e3" stroke="#404040" points="64,-90.5 24,-90.5 24,-71.25 64,-71.25 64,-90.5"/>
<text text-anchor="middle" x="44" y="-77" font-family="Helvetica,sans-Serif" font-size="10.00">acata</text>
</a>
</g>
</g>
<!-- dir_c2249c15dcb99f353cb0bb3a93761cbc&#45;&gt;dir_9be0baa3d4a3e9f480a9ee70594037fa -->
<g id="edge1" class="edge">
<title>dir_c2249c15dcb99f353cb0bb3a93761cbc&#45;&gt;dir_9be0baa3d4a3e9f480a9ee70594037fa</title>
<g id="a_edge1"><a xlink:href="dir_000000_000212.html" target="_top">
<path fill="none" stroke="#63b8ff" d="M57,-70.76C61.81,-67.85 67.45,-64.94 73,-63.25 163.75,-35.6 456.52,-28.63 555.19,-27.05"/>
<polygon fill="#63b8ff" stroke="#63b8ff" points="555.03,-30.55 564.98,-26.9 554.92,-23.56 555.03,-30.55"/>
</a>
</g>
<g id="a_edge1&#45;headlabel"><a xlink:href="dir_000000_000212.html" target="_top" xlink:title="7">
<text text-anchor="middle" x="552.99" y="-29.55" font-family="Helvetica,sans-Serif" font-size="10.00" fill="#63b8ff">7</text>
</a>
</g>
</g>
<!-- dir_3e33cc838f00d2e02fc45a4479cb1f60 -->
<g id="node6" class="node">
<title>dir_3e33cc838f00d2e02fc45a4479cb1f60</title>
<g id="a_node6"><a xlink:href="dir_3e33cc838f00d2e02fc45a4479cb1f60.html" target="_top" xlink:title="acatad">
<polygon fill="#60a2e3" stroke="#404040" points="1086.62,-90.5 1041.38,-90.5 1041.38,-71.25 1086.62,-71.25 1086.62,-90.5"/>
<text text-anchor="middle" x="1064" y="-77" font-family="Helvetica,sans-Serif" font-size="10.00">acatad</text>
</a>
</g>
</g>
<!-- dir_3e33cc838f00d2e02fc45a4479cb1f60&#45;&gt;dir_9be0baa3d4a3e9f480a9ee70594037fa -->
<g id="edge4" class="edge">
<title>dir_3e33cc838f00d2e02fc45a4479cb1f60&#45;&gt;dir_9be0baa3d4a3e9f480a9ee70594037fa</title>
<g id="a_edge4"><a xlink:href="dir_000001_000212.html" target="_top">
<path fill="none" stroke="#63b8ff" d="M1050.02,-70.81C1044.87,-67.9 1038.86,-64.98 1033,-63.25 955.62,-40.39 709.81,-30.49 620.68,-27.59"/>
<polygon fill="#63b8ff" stroke="#63b8ff" points="621.03,-24.1 610.93,-27.28 620.81,-31.09 621.03,-24.1"/>
</a>
</g>
<g id="a_edge4&#45;headlabel"><a xlink:href="dir_000001_000212.html" target="_top" xlink:title="5">
<text text-anchor="middle" x="623.2" y="-17.45" font-family="Helvetica,sans-Serif" font-size="10.00" fill="#63b8ff">5</text>
</a>
</g>
</g>
<!-- dir_3e33cc838f00d2e02fc45a4479cb1f60&#45;&gt;dir_6f16cad81de2453a6f48c5e272ba4a18 -->
<g id="edge2" class="edge">
<title>dir_3e33cc838f00d2e02fc45a4479cb1f60&#45;&gt;dir_6f16cad81de2453a6f48c5e272ba4a18</title>
<g id="a_edge2"><a xlink:href="dir_000001_000046.html" target="_top">
<path fill="none" stroke="#63b8ff" d="M1048.05,-70.84C1033.74,-62.73 1012.47,-50.68 995.75,-41.21"/>
<polygon fill="#63b8ff" stroke="#63b8ff" points="997.77,-38.33 987.34,-36.45 994.32,-44.42 997.77,-38.33"/>
</a>
</g>
<g id="a_edge2&#45;headlabel"><a xlink:href="dir_000001_000046.html" target="_top" xlink:title="1">
<text text-anchor="middle" x="1000.98" y="-33.01" font-family="Helvetica,sans-Serif" font-size="10.00" fill="#63b8ff">1</text>
</a>
</g>
</g>
<!-- dir_bdd9a5d540de89e9fe90efdfc6973a4f -->
<g id="node23" class="node">
<title>dir_bdd9a5d540de89e9fe90efdfc6973a4f</title>
<g id="a_node23"><a xlink:href="dir_bdd9a5d540de89e9fe90efdfc6973a4f.html" target="_top" xlink:title="common">
<polygon fill="#deebf9" stroke="red" points="1288.75,-35.25 1235.25,-35.25 1235.25,-16 1288.75,-16 1288.75,-35.25"/>
<text text-anchor="middle" x="1262" y="-21.75" font-family="Helvetica,sans-Serif" font-size="10.00">common</text>
</a>
</g>
</g>
<!-- dir_3e33cc838f00d2e02fc45a4479cb1f60&#45;&gt;dir_bdd9a5d540de89e9fe90efdfc6973a4f -->
<g id="edge3" class="edge">
<title>dir_3e33cc838f00d2e02fc45a4479cb1f60&#45;&gt;dir_bdd9a5d540de89e9fe90efdfc6973a4f</title>
<g id="a_edge3"><a xlink:href="dir_000001_000042.html" target="_top">
<path fill="none" stroke="#63b8ff" d="M1079.24,-70.87C1084.42,-68.11 1090.34,-65.26 1096,-63.25 1150.24,-43.95 1169.16,-48.95 1223.92,-36.83"/>
<polygon fill="#63b8ff" stroke="#63b8ff" points="1224.55,-40.27 1233.5,-34.6 1222.97,-33.45 1224.55,-40.27"/>
</a>
</g>
<g id="a_edge3&#45;headlabel"><a xlink:href="dir_000001_000042.html" target="_top" xlink:title="1">
<text text-anchor="middle" x="1223.17" y="-39.63" font-family="Helvetica,sans-Serif" font-size="10.00" fill="#63b8ff">1</text>
</a>
</g>
</g>
<!-- dir_d5480c28c70feff4085e53014a5bb4c3 -->
<g id="node7" class="node">
<title>dir_d5480c28c70feff4085e53014a5bb4c3</title>
<g id="a_node7"><a xlink:href="dir_d5480c28c70feff4085e53014a5bb4c3.html" target="_top" xlink:title="accdvd">
<polygon fill="#60a2e3" stroke="#404040" points="773.75,-90.5 726.25,-90.5 726.25,-71.25 773.75,-71.25 773.75,-90.5"/>
<text text-anchor="middle" x="750" y="-77" font-family="Helvetica,sans-Serif" font-size="10.00">accdvd</text>
</a>
</g>
</g>
<!-- dir_d5480c28c70feff4085e53014a5bb4c3&#45;&gt;dir_9be0baa3d4a3e9f480a9ee70594037fa -->
<g id="edge5" class="edge">
<title>dir_d5480c28c70feff4085e53014a5bb4c3&#45;&gt;dir_9be0baa3d4a3e9f480a9ee70594037fa</title>
<g id="a_edge5"><a xlink:href="dir_000002_000212.html" target="_top">
<path fill="none" stroke="#63b8ff" d="M733.49,-70.79C728.31,-68.14 722.5,-65.39 717,-63.25 684.88,-50.73 646.75,-40.44 620.32,-33.99"/>
<polygon fill="#63b8ff" stroke="#63b8ff" points="621.42,-30.65 610.88,-31.73 619.79,-37.46 621.42,-30.65"/>
</a>
</g>
<g id="a_edge5&#45;headlabel"><a xlink:href="dir_000002_000212.html" target="_top" xlink:title="11">
<text text-anchor="middle" x="624.1" y="-24.5" font-family="Helvetica,sans-Serif" font-size="10.00" fill="#63b8ff">11</text>
</a>
</g>
</g>
<!-- dir_4802f7d95fb602d0291cc88043ed0216 -->
<g id="node8" class="node">
<title>dir_4802f7d95fb602d0291cc88043ed0216</title>
<g id="a_node8"><a xlink:href="dir_4802f7d95fb602d0291cc88043ed0216.html" target="_top" xlink:title="accdvde">
<polygon fill="#60a2e3" stroke="#404040" points="708.38,-90.5 655.62,-90.5 655.62,-71.25 708.38,-71.25 708.38,-90.5"/>
<text text-anchor="middle" x="682" y="-77" font-family="Helvetica,sans-Serif" font-size="10.00">accdvde</text>
</a>
</g>
</g>
<!-- dir_4802f7d95fb602d0291cc88043ed0216&#45;&gt;dir_9be0baa3d4a3e9f480a9ee70594037fa -->
<g id="edge6" class="edge">
<title>dir_4802f7d95fb602d0291cc88043ed0216&#45;&gt;dir_9be0baa3d4a3e9f480a9ee70594037fa</title>
<g id="a_edge6"><a xlink:href="dir_000003_000212.html" target="_top">
<path fill="none" stroke="#63b8ff" d="M666.05,-70.84C651.74,-62.73 630.47,-50.68 613.75,-41.21"/>
<polygon fill="#63b8ff" stroke="#63b8ff" points="615.77,-38.33 605.34,-36.45 612.32,-44.42 615.77,-38.33"/>
</a>
</g>
<g id="a_edge6&#45;headlabel"><a xlink:href="dir_000003_000212.html" target="_top" xlink:title="7">
<text text-anchor="middle" x="618.98" y="-33.01" font-family="Helvetica,sans-Serif" font-size="10.00" fill="#63b8ff">7</text>
</a>
</g>
</g>
<!-- dir_8c41b7aa740fda79cdc4490331cf7b7d -->
<g id="node9" class="node">
<title>dir_8c41b7aa740fda79cdc4490331cf7b7d</title>
<g id="a_node9"><a xlink:href="dir_8c41b7aa740fda79cdc4490331cf7b7d.html" target="_top" xlink:title="accore">
<polygon fill="#60a2e3" stroke="#404040" points="1023.62,-90.5 978.38,-90.5 978.38,-71.25 1023.62,-71.25 1023.62,-90.5"/>
<text text-anchor="middle" x="1001" y="-77" font-family="Helvetica,sans-Serif" font-size="10.00">accore</text>
</a>
</g>
</g>
<!-- dir_8c41b7aa740fda79cdc4490331cf7b7d&#45;&gt;dir_9be0baa3d4a3e9f480a9ee70594037fa -->
<g id="edge7" class="edge">
<title>dir_8c41b7aa740fda79cdc4490331cf7b7d&#45;&gt;dir_9be0baa3d4a3e9f480a9ee70594037fa</title>
<g id="a_edge7"><a xlink:href="dir_000004_000212.html" target="_top">
<path fill="none" stroke="#63b8ff" d="M987.01,-70.85C981.85,-67.94 975.85,-65.02 970,-63.25 904.95,-43.56 700.95,-31.99 620.8,-28.11"/>
<polygon fill="#63b8ff" stroke="#63b8ff" points="621.14,-24.62 610.98,-27.64 620.8,-31.61 621.14,-24.62"/>
</a>
</g>
<g id="a_edge7&#45;headlabel"><a xlink:href="dir_000004_000212.html" target="_top" xlink:title="6">
<text text-anchor="middle" x="623.35" y="-18.01" font-family="Helvetica,sans-Serif" font-size="10.00" fill="#63b8ff">6</text>
</a>
</g>
</g>
<!-- dir_8c41b7aa740fda79cdc4490331cf7b7d&#45;&gt;dir_bdd9a5d540de89e9fe90efdfc6973a4f -->
<g id="edge8" class="edge">
<title>dir_8c41b7aa740fda79cdc4490331cf7b7d&#45;&gt;dir_bdd9a5d540de89e9fe90efdfc6973a4f</title>
<g id="a_edge8"><a xlink:href="dir_000004_000042.html" target="_top">
<path fill="none" stroke="#63b8ff" d="M1015.35,-70.82C1020.44,-67.98 1026.31,-65.11 1032,-63.25 1113.33,-36.66 1141.22,-52.05 1223.81,-36.58"/>
<polygon fill="#63b8ff" stroke="#63b8ff" points="1224.39,-40.04 1233.52,-34.66 1223.03,-33.17 1224.39,-40.04"/>
</a>
</g>
<g id="a_edge8&#45;headlabel"><a xlink:href="dir_000004_000042.html" target="_top" xlink:title="1">
<text text-anchor="middle" x="1222.9" y="-39.35" font-family="Helvetica,sans-Serif" font-size="10.00" fill="#63b8ff">1</text>
</a>
</g>
</g>
<!-- dir_e1d9c48c0fe693840f397bd0f86d700a -->
<g id="node10" class="node">
<title>dir_e1d9c48c0fe693840f397bd0f86d700a</title>
<g id="a_node10"><a xlink:href="dir_e1d9c48c0fe693840f397bd0f86d700a.html" target="_top" xlink:title="acdev">
<polygon fill="#60a2e3" stroke="#404040" points="1147.12,-90.5 1104.88,-90.5 1104.88,-71.25 1147.12,-71.25 1147.12,-90.5"/>
<text text-anchor="middle" x="1126" y="-77" font-family="Helvetica,sans-Serif" font-size="10.00">acdev</text>
</a>
</g>
</g>
<!-- dir_e1d9c48c0fe693840f397bd0f86d700a&#45;&gt;dir_9be0baa3d4a3e9f480a9ee70594037fa -->
<g id="edge9" class="edge">
<title>dir_e1d9c48c0fe693840f397bd0f86d700a&#45;&gt;dir_9be0baa3d4a3e9f480a9ee70594037fa</title>
<g id="a_edge9"><a xlink:href="dir_000005_000212.html" target="_top">
<path fill="none" stroke="#63b8ff" d="M1112.52,-70.77C1107.53,-67.86 1101.71,-64.95 1096,-63.25 1006.49,-36.64 718.87,-29.01 620.98,-27.15"/>
<polygon fill="#63b8ff" stroke="#63b8ff" points="621.07,-23.65 611.01,-26.97 620.94,-30.65 621.07,-23.65"/>
</a>
</g>
<g id="a_edge9&#45;headlabel"><a xlink:href="dir_000005_000212.html" target="_top" xlink:title="6">
<text text-anchor="middle" x="623.2" y="-16.98" font-family="Helvetica,sans-Serif" font-size="10.00" fill="#63b8ff">6</text>
</a>
</g>
</g>
<!-- dir_e1d9c48c0fe693840f397bd0f86d700a&#45;&gt;dir_f24daea2522ffa8b6dc5fa9cdf5b8f5c -->
<g id="edge11" class="edge">
<title>dir_e1d9c48c0fe693840f397bd0f86d700a&#45;&gt;dir_f24daea2522ffa8b6dc5fa9cdf5b8f5c</title>
<g id="a_edge11"><a xlink:href="dir_000005_000074.html" target="_top">
<path fill="none" stroke="#63b8ff" d="M1126,-71.08C1126,-64.57 1126,-55.42 1126,-47.12"/>
<polygon fill="#63b8ff" stroke="#63b8ff" points="1129.5,-47.12 1126,-37.12 1122.5,-47.12 1129.5,-47.12"/>
</a>
</g>
<g id="a_edge11&#45;headlabel"><a xlink:href="dir_000005_000074.html" target="_top" xlink:title="1">
<text text-anchor="middle" x="1132.34" y="-45.33" font-family="Helvetica,sans-Serif" font-size="10.00" fill="#63b8ff">1</text>
</a>
</g>
</g>
<!-- dir_e1d9c48c0fe693840f397bd0f86d700a&#45;&gt;dir_bdd9a5d540de89e9fe90efdfc6973a4f -->
<g id="edge10" class="edge">
<title>dir_e1d9c48c0fe693840f397bd0f86d700a&#45;&gt;dir_bdd9a5d540de89e9fe90efdfc6973a4f</title>
<g id="a_edge10"><a xlink:href="dir_000005_000042.html" target="_top">
<path fill="none" stroke="#63b8ff" d="M1141,-70.89C1145.71,-68.26 1151,-65.48 1156,-63.25 1178.06,-53.42 1203.62,-44.51 1224.12,-37.95"/>
<polygon fill="#63b8ff" stroke="#63b8ff" points="1225,-41.34 1233.49,-35.01 1222.9,-34.67 1225,-41.34"/>
</a>
</g>
<g id="a_edge10&#45;headlabel"><a xlink:href="dir_000005_000042.html" target="_top" xlink:title="1">
<text text-anchor="middle" x="1223.86" y="-40.8" font-family="Helvetica,sans-Serif" font-size="10.00" fill="#63b8ff">1</text>
</a>
</g>
</g>
<!-- dir_db911554707e5978c632e5ebc00a1f14 -->
<g id="node11" class="node">
<title>dir_db911554707e5978c632e5ebc00a1f14</title>
<g id="a_node11"><a xlink:href="dir_db911554707e5978c632e5ebc00a1f14.html" target="_top" xlink:title="acdev9">
<polygon fill="#60a2e3" stroke="#404040" points="899.75,-90.5 852.25,-90.5 852.25,-71.25 899.75,-71.25 899.75,-90.5"/>
<text text-anchor="middle" x="876" y="-77" font-family="Helvetica,sans-Serif" font-size="10.00">acdev9</text>
</a>
</g>
</g>
<!-- dir_db911554707e5978c632e5ebc00a1f14&#45;&gt;dir_9be0baa3d4a3e9f480a9ee70594037fa -->
<g id="edge13" class="edge">
<title>dir_db911554707e5978c632e5ebc00a1f14&#45;&gt;dir_9be0baa3d4a3e9f480a9ee70594037fa</title>
<g id="a_edge13"><a xlink:href="dir_000006_000212.html" target="_top">
<path fill="none" stroke="#63b8ff" d="M860.66,-70.85C855.24,-68.01 849,-65.14 843,-63.25 765.71,-38.95 670.12,-30.7 620.83,-27.95"/>
<polygon fill="#63b8ff" stroke="#63b8ff" points="621.01,-24.46 610.85,-27.45 620.66,-31.45 621.01,-24.46"/>
</a>
</g>
<g id="a_edge13&#45;headlabel"><a xlink:href="dir_000006_000212.html" target="_top" xlink:title="3">
<text text-anchor="middle" x="623.23" y="-17.85" font-family="Helvetica,sans-Serif" font-size="10.00" fill="#63b8ff">3</text>
</a>
</g>
</g>
<!-- dir_db911554707e5978c632e5ebc00a1f14&#45;&gt;dir_6f16cad81de2453a6f48c5e272ba4a18 -->
<g id="edge12" class="edge">
<title>dir_db911554707e5978c632e5ebc00a1f14&#45;&gt;dir_6f16cad81de2453a6f48c5e272ba4a18</title>
<g id="a_edge12"><a xlink:href="dir_000006_000046.html" target="_top">
<path fill="none" stroke="#63b8ff" d="M891.95,-70.84C906.26,-62.73 927.53,-50.68 944.25,-41.21"/>
<polygon fill="#63b8ff" stroke="#63b8ff" points="945.68,-44.42 952.66,-36.45 942.23,-38.33 945.68,-44.42"/>
</a>
</g>
<g id="a_edge12&#45;headlabel"><a xlink:href="dir_000006_000046.html" target="_top" xlink:title="1">
<text text-anchor="middle" x="945.27" y="-44.04" font-family="Helvetica,sans-Serif" font-size="10.00" fill="#63b8ff">1</text>
</a>
</g>
</g>
<!-- dir_80f6da64465a1795342f9b5f13be8909 -->
<g id="node12" class="node">
<title>dir_80f6da64465a1795342f9b5f13be8909</title>
<g id="a_node12"><a xlink:href="dir_80f6da64465a1795342f9b5f13be8909.html" target="_top" xlink:title="acflash">
<polygon fill="#60a2e3" stroke="#404040" points="449.38,-90.5 402.62,-90.5 402.62,-71.25 449.38,-71.25 449.38,-90.5"/>
<text text-anchor="middle" x="426" y="-77" font-family="Helvetica,sans-Serif" font-size="10.00">acflash</text>
</a>
</g>
</g>
<!-- dir_80f6da64465a1795342f9b5f13be8909&#45;&gt;dir_9be0baa3d4a3e9f480a9ee70594037fa -->
<g id="edge14" class="edge">
<title>dir_80f6da64465a1795342f9b5f13be8909&#45;&gt;dir_9be0baa3d4a3e9f480a9ee70594037fa</title>
<g id="a_edge14"><a xlink:href="dir_000007_000212.html" target="_top">
<path fill="none" stroke="#63b8ff" d="M442.51,-70.79C447.69,-68.14 453.5,-65.39 459,-63.25 491.12,-50.73 529.25,-40.44 555.68,-33.99"/>
<polygon fill="#63b8ff" stroke="#63b8ff" points="556.21,-37.46 565.12,-31.73 554.58,-30.65 556.21,-37.46"/>
</a>
</g>
<g id="a_edge14&#45;headlabel"><a xlink:href="dir_000007_000212.html" target="_top" xlink:title="4">
<text text-anchor="middle" x="554.84" y="-36.83" font-family="Helvetica,sans-Serif" font-size="10.00" fill="#63b8ff">4</text>
</a>
</g>
</g>
<!-- dir_3f94e3a7ba0cb8dddc276738ef412c16 -->
<g id="node13" class="node">
<title>dir_3f94e3a7ba0cb8dddc276738ef412c16</title>
<g id="a_node13"><a xlink:href="dir_3f94e3a7ba0cb8dddc276738ef412c16.html" target="_top" xlink:title="acfpgald">
<polygon fill="#60a2e3" stroke="#404040" points="384.38,-90.5 331.62,-90.5 331.62,-71.25 384.38,-71.25 384.38,-90.5"/>
<text text-anchor="middle" x="358" y="-77" font-family="Helvetica,sans-Serif" font-size="10.00">acfpgald</text>
</a>
</g>
</g>
<!-- dir_3f94e3a7ba0cb8dddc276738ef412c16&#45;&gt;dir_9be0baa3d4a3e9f480a9ee70594037fa -->
<g id="edge15" class="edge">
<title>dir_3f94e3a7ba0cb8dddc276738ef412c16&#45;&gt;dir_9be0baa3d4a3e9f480a9ee70594037fa</title>
<g id="a_edge15"><a xlink:href="dir_000008_000212.html" target="_top">
<path fill="none" stroke="#63b8ff" d="M375.23,-70.87C381.07,-68.1 387.71,-65.26 394,-63.25 449.21,-45.59 516.13,-35.28 555.2,-30.32"/>
<polygon fill="#63b8ff" stroke="#63b8ff" points="555.62,-33.79 565.12,-29.1 554.77,-26.84 555.62,-33.79"/>
</a>
</g>
<g id="a_edge15&#45;headlabel"><a xlink:href="dir_000008_000212.html" target="_top" xlink:title="5">
<text text-anchor="middle" x="553.9" y="-32.99" font-family="Helvetica,sans-Serif" font-size="10.00" fill="#63b8ff">5</text>
</a>
</g>
</g>
<!-- dir_50d3aa1cb52f1ed06631164a65eecb46 -->
<g id="node14" class="node">
<title>dir_50d3aa1cb52f1ed06631164a65eecb46</title>
<g id="a_node14"><a xlink:href="dir_50d3aa1cb52f1ed06631164a65eecb46.html" target="_top" xlink:title="acjv">
<polygon fill="#60a2e3" stroke="#404040" points="314,-90.5 280,-90.5 280,-71.25 314,-71.25 314,-90.5"/>
<text text-anchor="middle" x="297" y="-77" font-family="Helvetica,sans-Serif" font-size="10.00">acjv</text>
</a>
</g>
</g>
<!-- dir_50d3aa1cb52f1ed06631164a65eecb46&#45;&gt;dir_9be0baa3d4a3e9f480a9ee70594037fa -->
<g id="edge16" class="edge">
<title>dir_50d3aa1cb52f1ed06631164a65eecb46&#45;&gt;dir_9be0baa3d4a3e9f480a9ee70594037fa</title>
<g id="a_edge16"><a xlink:href="dir_000009_000212.html" target="_top">
<path fill="none" stroke="#63b8ff" d="M308.86,-70.77C313.11,-67.93 318.07,-65.07 323,-63.25 402.88,-33.81 504.23,-27.75 555.35,-26.69"/>
<polygon fill="#63b8ff" stroke="#63b8ff" points="555.18,-30.19 565.13,-26.54 555.08,-23.19 555.18,-30.19"/>
</a>
</g>
<g id="a_edge16&#45;headlabel"><a xlink:href="dir_000009_000212.html" target="_top" xlink:title="2">
<text text-anchor="middle" x="553.15" y="-29.18" font-family="Helvetica,sans-Serif" font-size="10.00" fill="#63b8ff">2</text>
</a>
</g>
</g>
<!-- dir_940f37c3979c10ff959587dc675877f7 -->
<g id="node15" class="node">
<title>dir_940f37c3979c10ff959587dc675877f7</title>
<g id="a_node15"><a xlink:href="dir_940f37c3979c10ff959587dc675877f7.html" target="_top" xlink:title="acjvld">
<polygon fill="#60a2e3" stroke="#404040" points="261.75,-90.5 220.25,-90.5 220.25,-71.25 261.75,-71.25 261.75,-90.5"/>
<text text-anchor="middle" x="241" y="-77" font-family="Helvetica,sans-Serif" font-size="10.00">acjvld</text>
</a>
</g>
</g>
<!-- dir_940f37c3979c10ff959587dc675877f7&#45;&gt;dir_9be0baa3d4a3e9f480a9ee70594037fa -->
<g id="edge17" class="edge">
<title>dir_940f37c3979c10ff959587dc675877f7&#45;&gt;dir_9be0baa3d4a3e9f480a9ee70594037fa</title>
<g id="a_edge17"><a xlink:href="dir_000010_000212.html" target="_top">
<path fill="none" stroke="#63b8ff" d="M254.53,-70.91C259.51,-68 265.33,-65.07 271,-63.25 370.97,-31.17 496.66,-26.51 555.2,-26.26"/>
<polygon fill="#63b8ff" stroke="#63b8ff" points="555.12,-29.76 565.12,-26.27 555.12,-22.76 555.12,-29.76"/>
</a>
</g>
<g id="a_edge17&#45;headlabel"><a xlink:href="dir_000010_000212.html" target="_top" xlink:title="4">
<text text-anchor="middle" x="553.04" y="-28.72" font-family="Helvetica,sans-Serif" font-size="10.00" fill="#63b8ff">4</text>
</a>
</g>
</g>
<!-- dir_a75e69d790b6d0b75ca4561c0370959b -->
<g id="node16" class="node">
<title>dir_a75e69d790b6d0b75ca4561c0370959b</title>
<g id="a_node16"><a xlink:href="dir_a75e69d790b6d0b75ca4561c0370959b.html" target="_top" xlink:title="acmem">
<polygon fill="#60a2e3" stroke="#404040" points="202.12,-90.5 153.88,-90.5 153.88,-71.25 202.12,-71.25 202.12,-90.5"/>
<text text-anchor="middle" x="178" y="-77" font-family="Helvetica,sans-Serif" font-size="10.00">acmem</text>
</a>
</g>
</g>
<!-- dir_a75e69d790b6d0b75ca4561c0370959b&#45;&gt;dir_9be0baa3d4a3e9f480a9ee70594037fa -->
<g id="edge18" class="edge">
<title>dir_a75e69d790b6d0b75ca4561c0370959b&#45;&gt;dir_9be0baa3d4a3e9f480a9ee70594037fa</title>
<g id="a_edge18"><a xlink:href="dir_000011_000212.html" target="_top">
<path fill="none" stroke="#63b8ff" d="M192.96,-70.87C198.45,-67.96 204.84,-65.03 211,-63.25 334.39,-27.53 488.98,-25 555.31,-25.8"/>
<polygon fill="#63b8ff" stroke="#63b8ff" points="555.08,-29.3 565.13,-25.96 555.19,-22.3 555.08,-29.3"/>
</a>
</g>
<g id="a_edge18&#45;headlabel"><a xlink:href="dir_000011_000212.html" target="_top" xlink:title="5">
<text text-anchor="middle" x="552.95" y="-28.23" font-family="Helvetica,sans-Serif" font-size="10.00" fill="#63b8ff">5</text>
</a>
</g>
</g>
<!-- dir_3e86b8adf38d0f4d7eedc40eae73f90a -->
<g id="node17" class="node">
<title>dir_3e86b8adf38d0f4d7eedc40eae73f90a</title>
<g id="a_node17"><a xlink:href="dir_3e86b8adf38d0f4d7eedc40eae73f90a.html" target="_top" xlink:title="acmeme">
<polygon fill="#60a2e3" stroke="#404040" points="135.75,-90.5 82.25,-90.5 82.25,-71.25 135.75,-71.25 135.75,-90.5"/>
<text text-anchor="middle" x="109" y="-77" font-family="Helvetica,sans-Serif" font-size="10.00">acmeme</text>
</a>
</g>
</g>
<!-- dir_3e86b8adf38d0f4d7eedc40eae73f90a&#45;&gt;dir_9be0baa3d4a3e9f480a9ee70594037fa -->
<g id="edge19" class="edge">
<title>dir_3e86b8adf38d0f4d7eedc40eae73f90a&#45;&gt;dir_9be0baa3d4a3e9f480a9ee70594037fa</title>
<g id="a_edge19"><a xlink:href="dir_000012_000212.html" target="_top">
<path fill="none" stroke="#63b8ff" d="M125.4,-70.83C131.39,-67.92 138.34,-65 145,-63.25 222.59,-42.81 466.42,-31.41 555.23,-27.85"/>
<polygon fill="#63b8ff" stroke="#63b8ff" points="555.09,-31.36 564.95,-27.47 554.82,-24.37 555.09,-31.36"/>
</a>
</g>
<g id="a_edge19&#45;headlabel"><a xlink:href="dir_000012_000212.html" target="_top" xlink:title="6">
<text text-anchor="middle" x="553.13" y="-30.4" font-family="Helvetica,sans-Serif" font-size="10.00" fill="#63b8ff">6</text>
</a>
</g>
</g>
<!-- dir_1431105f3fb19cd016c4be314bacdc47 -->
<g id="node18" class="node">
<title>dir_1431105f3fb19cd016c4be314bacdc47</title>
<g id="a_node18"><a xlink:href="dir_1431105f3fb19cd016c4be314bacdc47.html" target="_top" xlink:title="acram">
<polygon fill="#60a2e3" stroke="#404040" points="834.5,-90.5 791.5,-90.5 791.5,-71.25 834.5,-71.25 834.5,-90.5"/>
<text text-anchor="middle" x="813" y="-77" font-family="Helvetica,sans-Serif" font-size="10.00">acram</text>
</a>
</g>
</g>
<!-- dir_1431105f3fb19cd016c4be314bacdc47&#45;&gt;dir_9be0baa3d4a3e9f480a9ee70594037fa -->
<g id="edge20" class="edge">
<title>dir_1431105f3fb19cd016c4be314bacdc47&#45;&gt;dir_9be0baa3d4a3e9f480a9ee70594037fa</title>
<g id="a_edge20"><a xlink:href="dir_000013_000212.html" target="_top">
<path fill="none" stroke="#63b8ff" d="M798.79,-70.78C793.94,-68.01 788.38,-65.19 783,-63.25 727.93,-43.41 660.06,-33.77 620.64,-29.53"/>
<polygon fill="#63b8ff" stroke="#63b8ff" points="621.17,-26.07 610.87,-28.54 620.46,-33.03 621.17,-26.07"/>
</a>
</g>
<g id="a_edge20&#45;headlabel"><a xlink:href="dir_000013_000212.html" target="_top" xlink:title="7">
<text text-anchor="middle" x="623.53" y="-19.58" font-family="Helvetica,sans-Serif" font-size="10.00" fill="#63b8ff">7</text>
</a>
</g>
</g>
<!-- dir_1ce65a17f8f99ac874f77278c69e114f -->
<g id="node19" class="node">
<title>dir_1ce65a17f8f99ac874f77278c69e114f</title>
<g id="a_node19"><a xlink:href="dir_1ce65a17f8f99ac874f77278c69e114f.html" target="_top" xlink:title="acrtc">
<polygon fill="#60a2e3" stroke="#404040" points="637.88,-90.5 600.12,-90.5 600.12,-71.25 637.88,-71.25 637.88,-90.5"/>
<text text-anchor="middle" x="619" y="-77" font-family="Helvetica,sans-Serif" font-size="10.00">acrtc</text>
</a>
</g>
</g>
<!-- dir_1ce65a17f8f99ac874f77278c69e114f&#45;&gt;dir_9be0baa3d4a3e9f480a9ee70594037fa -->
<g id="edge21" class="edge">
<title>dir_1ce65a17f8f99ac874f77278c69e114f&#45;&gt;dir_9be0baa3d4a3e9f480a9ee70594037fa</title>
<g id="a_edge21"><a xlink:href="dir_000014_000212.html" target="_top">
<path fill="none" stroke="#63b8ff" d="M613.88,-71.08C609.82,-64.11 604.01,-54.12 598.91,-45.37"/>
<polygon fill="#63b8ff" stroke="#63b8ff" points="602.05,-43.8 593.99,-36.92 596,-47.32 602.05,-43.8"/>
</a>
</g>
<g id="a_edge21&#45;headlabel"><a xlink:href="dir_000014_000212.html" target="_top" xlink:title="4">
<text text-anchor="middle" x="605.55" y="-40.29" font-family="Helvetica,sans-Serif" font-size="10.00" fill="#63b8ff">4</text>
</a>
</g>
</g>
<!-- dir_537c1a5f31ee55d93fbd41130c9584dc -->
<g id="node20" class="node">
<title>dir_537c1a5f31ee55d93fbd41130c9584dc</title>
<g id="a_node20"><a xlink:href="dir_537c1a5f31ee55d93fbd41130c9584dc.html" target="_top" xlink:title="acsram">
<polygon fill="#60a2e3" stroke="#404040" points="582.12,-90.5 533.88,-90.5 533.88,-71.25 582.12,-71.25 582.12,-90.5"/>
<text text-anchor="middle" x="558" y="-77" font-family="Helvetica,sans-Serif" font-size="10.00">acsram</text>
</a>
</g>
</g>
<!-- dir_537c1a5f31ee55d93fbd41130c9584dc&#45;&gt;dir_9be0baa3d4a3e9f480a9ee70594037fa -->
<g id="edge22" class="edge">
<title>dir_537c1a5f31ee55d93fbd41130c9584dc&#45;&gt;dir_9be0baa3d4a3e9f480a9ee70594037fa</title>
<g id="a_edge22"><a xlink:href="dir_000015_000212.html" target="_top">
<path fill="none" stroke="#63b8ff" d="M562.95,-71.08C566.88,-64.11 572.51,-54.12 577.44,-45.37"/>
<polygon fill="#63b8ff" stroke="#63b8ff" points="580.34,-47.36 582.2,-36.93 574.24,-43.92 580.34,-47.36"/>
</a>
</g>
<g id="a_edge22&#45;headlabel"><a xlink:href="dir_000015_000212.html" target="_top" xlink:title="2">
<text text-anchor="middle" x="581.79" y="-46.69" font-family="Helvetica,sans-Serif" font-size="10.00" fill="#63b8ff">2</text>
</a>
</g>
</g>
<!-- dir_b480fdbd9089eb9ef496e03587bad219 -->
<g id="node21" class="node">
<title>dir_b480fdbd9089eb9ef496e03587bad219</title>
<g id="a_node21"><a xlink:href="dir_b480fdbd9089eb9ef496e03587bad219.html" target="_top" xlink:title="actimer">
<polygon fill="#60a2e3" stroke="#404040" points="516.12,-90.5 467.88,-90.5 467.88,-71.25 516.12,-71.25 516.12,-90.5"/>
<text text-anchor="middle" x="492" y="-77" font-family="Helvetica,sans-Serif" font-size="10.00">actimer</text>
</a>
</g>
</g>
<!-- dir_b480fdbd9089eb9ef496e03587bad219&#45;&gt;dir_9be0baa3d4a3e9f480a9ee70594037fa -->
<g id="edge23" class="edge">
<title>dir_b480fdbd9089eb9ef496e03587bad219&#45;&gt;dir_9be0baa3d4a3e9f480a9ee70594037fa</title>
<g id="a_edge23"><a xlink:href="dir_000016_000212.html" target="_top">
<path fill="none" stroke="#63b8ff" d="M508.29,-70.84C522.9,-62.73 544.63,-50.68 561.71,-41.21"/>
<polygon fill="#63b8ff" stroke="#63b8ff" points="563.26,-44.35 570.31,-36.44 559.87,-38.23 563.26,-44.35"/>
</a>
</g>
<g id="a_edge23&#45;headlabel"><a xlink:href="dir_000016_000212.html" target="_top" xlink:title="5">
<text text-anchor="middle" x="562.82" y="-43.97" font-family="Helvetica,sans-Serif" font-size="10.00" fill="#63b8ff">5</text>
</a>
</g>
</g>
<!-- dir_7268553a12e6a8f82f5fa90127c455c6 -->
<g id="node22" class="node">
<title>dir_7268553a12e6a8f82f5fa90127c455c6</title>
<g id="a_node22"><a xlink:href="dir_7268553a12e6a8f82f5fa90127c455c6.html" target="_top" xlink:title="acuart">
<polygon fill="#60a2e3" stroke="#404040" points="960.5,-90.5 917.5,-90.5 917.5,-71.25 960.5,-71.25 960.5,-90.5"/>
<text text-anchor="middle" x="939" y="-77" font-family="Helvetica,sans-Serif" font-size="10.00">acuart</text>
</a>
</g>
</g>
<!-- dir_7268553a12e6a8f82f5fa90127c455c6&#45;&gt;dir_9be0baa3d4a3e9f480a9ee70594037fa -->
<g id="edge24" class="edge">
<title>dir_7268553a12e6a8f82f5fa90127c455c6&#45;&gt;dir_9be0baa3d4a3e9f480a9ee70594037fa</title>
<g id="a_edge24"><a xlink:href="dir_000017_000212.html" target="_top">
<path fill="none" stroke="#63b8ff" d="M925.47,-70.9C920.49,-68 914.67,-65.07 909,-63.25 807.3,-30.69 679.33,-26.3 620.41,-26.19"/>
<polygon fill="#63b8ff" stroke="#63b8ff" points="620.75,-22.69 610.76,-26.22 620.77,-29.69 620.75,-22.69"/>
</a>
</g>
<g id="a_edge24&#45;headlabel"><a xlink:href="dir_000017_000212.html" target="_top" xlink:title="8">
<text text-anchor="middle" x="622.83" y="-15.97" font-family="Helvetica,sans-Serif" font-size="10.00" fill="#63b8ff">8</text>
</a>
</g>
</g>
<!-- dir_7268553a12e6a8f82f5fa90127c455c6&#45;&gt;dir_bdd9a5d540de89e9fe90efdfc6973a4f -->
<g id="edge25" class="edge">
<title>dir_7268553a12e6a8f82f5fa90127c455c6&#45;&gt;dir_bdd9a5d540de89e9fe90efdfc6973a4f</title>
<g id="a_edge25"><a xlink:href="dir_000017_000042.html" target="_top">
<path fill="none" stroke="#63b8ff" d="M952.52,-70.88C957.5,-67.97 963.32,-65.05 969,-63.25 1077.06,-29.08 1113.62,-55.42 1223.76,-36.46"/>
<polygon fill="#63b8ff" stroke="#63b8ff" points="1224.31,-39.92 1233.52,-34.69 1223.06,-33.03 1224.31,-39.92"/>
</a>
</g>
<g id="a_edge25&#45;headlabel"><a xlink:href="dir_000017_000042.html" target="_top" xlink:title="1">
<text text-anchor="middle" x="1222.77" y="-39.21" font-family="Helvetica,sans-Serif" font-size="10.00" fill="#63b8ff">1</text>
</a>
</g>
</g>
</g>
</svg>

<g id="navigator" transform="translate(0 0)" fill="#404254">
  <rect fill="#f2f5e9" fill-opacity="0.5" stroke="#606060" stroke-width=".5" x="0" y="0" width="60" height="60"/>
  <use id="zoomplus" xlink:href="#zoomPlus" x="17" y="9" onmousedown="handleZoom(evt,'in')"/>
  <use id="zoomminus" xlink:href="#zoomMin" x="42" y="9" onmousedown="handleZoom(evt,'out')"/>
  <use id="reset" xlink:href="#resetDef" x="30" y="36" onmousedown="handleReset()"/>
   <use id="arrowup" xlink:href="#arrowUp" x="0" y="0" onmousedown="handlePan(0,-1)"/>
  <use id="arrowright" xlink:href="#arrowRight" x="0" y="0" onmousedown="handlePan(1,0)"/>
  <use id="arrowdown" xlink:href="#arrowDown" x="0" y="0" onmousedown="handlePan(0,1)"/>
  <use id="arrowleft" xlink:href="#arrowLeft" x="0" y="0" onmousedown="handlePan(-1,0)"/>
</g>
<svg viewBox="0 0 15 15" width="100%" height="30px" preserveAspectRatio="xMaxYMin meet">
 <g id="arrow_out" transform="scale(0.3 0.3)">
  <a xlink:href="dir_83706370b12deb47497ed91304cced4b_dep_org.svg" target="_base">
   <rect id="button" ry="5" rx="5" y="6" x="6" height="38" width="38"
        fill="#f2f5e9" fill-opacity="0.5" stroke="#606060" stroke-width="1.0"/>
   <path id="arrow"
     d="M 11.500037,31.436501 C 11.940474,20.09759 22.043105,11.32322 32.158766,21.979434 L 37.068811,17.246167 C 37.068811,17.246167 37.088388,32 37.088388,32 L 22.160133,31.978069 C 22.160133,31.978069 26.997745,27.140456 26.997745,27.140456 C 18.528582,18.264221 13.291696,25.230495 11.500037,31.436501 z"
     style="fill:#404040;"/>
  </a>
 </g>
</svg>

<style type='text/css'>
<![CDATA[
[data-mouse-over-selected='false'] { opacity: 0.7; }
[data-mouse-over-selected='true']  { opacity: 1.0; }
]]>
</style>
<script type="application/ecmascript"><![CDATA[
document.addEventListener('DOMContentLoaded', (event) => {
  highlightEdges();
  highlightAdjacentNodes();
});
]]></script>
</svg>
