<?xml version="1.0" encoding="UTF-8" standalone="no"?>
<!DOCTYPE svg PUBLIC "-//W3C//DTD SVG 1.1//EN"
 "http://www.w3.org/Graphics/SVG/1.1/DTD/svg11.dtd">
<!-- Generated by graphviz version 9.0.0 (20230911.1827)
 -->
<!-- Title: common/include/iop_mmio_hwport.h Pages: 1 -->
<svg width="366pt" height="105pt"
 viewBox="0.00 0.00 366.00 105.00" xmlns="http://www.w3.org/2000/svg" xmlns:xlink="http://www.w3.org/1999/xlink">
<g id="graph0" class="graph" transform="scale(1 1) rotate(0) translate(4 101)">
<title>common/include/iop_mmio_hwport.h</title>
<!-- Node1 -->
<g id="Node000001" class="node">
<title>Node1</title>
<g id="a_Node000001"><a xlink:title=" ">
<polygon fill="#999999" stroke="#666666" points="230.5,-97 127.5,-97 127.5,-66.5 230.5,-66.5 230.5,-97"/>
<text text-anchor="start" x="135.5" y="-83.5" font-family="Helvetica,sans-Serif" font-size="10.00">common/include/iop</text>
<text text-anchor="middle" x="179" y="-72.25" font-family="Helvetica,sans-Serif" font-size="10.00">_mmio_hwport.h</text>
</a>
</g>
</g>
<!-- Node2 -->
<g id="Node000002" class="node">
<title>Node2</title>
<g id="a_Node000002"><a xlink:href="eeconf_8c_source.html" target="_top" xlink:title=" ">
<polygon fill="white" stroke="#666666" points="112,-30.5 0,-30.5 0,0 112,0 112,-30.5"/>
<text text-anchor="start" x="8" y="-17" font-family="Helvetica,sans-Serif" font-size="10.00">iop/system/eeconf/src</text>
<text text-anchor="middle" x="56" y="-5.75" font-family="Helvetica,sans-Serif" font-size="10.00">/eeconf.c</text>
</a>
</g>
</g>
<!-- Node1&#45;&gt;Node2 -->
<g id="edge1_Node000001_Node000002" class="edge">
<title>Node1&#45;&gt;Node2</title>
<g id="a_edge1_Node000001_Node000002"><a xlink:title=" ">
<path fill="none" stroke="#63b8ff" d="M140.94,-60.79C122.47,-51.11 100.68,-39.68 83.8,-30.83"/>
<polygon fill="#63b8ff" stroke="#63b8ff" points="139.27,-63.87 149.75,-65.41 142.52,-57.67 139.27,-63.87"/>
</a>
</g>
</g>
<!-- Node3 -->
<g id="Node000003" class="node">
<title>Node3</title>
<g id="a_Node000003"><a xlink:href="intrman_8c_source.html" target="_top" xlink:title=" ">
<polygon fill="white" stroke="#666666" points="228.25,-30.5 129.75,-30.5 129.75,0 228.25,0 228.25,-30.5"/>
<text text-anchor="start" x="137.75" y="-17" font-family="Helvetica,sans-Serif" font-size="10.00">iop/system/intrman</text>
<text text-anchor="middle" x="179" y="-5.75" font-family="Helvetica,sans-Serif" font-size="10.00">/src/intrman.c</text>
</a>
</g>
</g>
<!-- Node1&#45;&gt;Node3 -->
<g id="edge2_Node000001_Node000003" class="edge">
<title>Node1&#45;&gt;Node3</title>
<g id="a_edge2_Node000001_Node000003"><a xlink:title=" ">
<path fill="none" stroke="#63b8ff" d="M179,-54.81C179,-46.64 179,-37.91 179,-30.83"/>
<polygon fill="#63b8ff" stroke="#63b8ff" points="175.5,-54.6 179,-64.6 182.5,-54.6 175.5,-54.6"/>
</a>
</g>
</g>
<!-- Node4 -->
<g id="Node000004" class="node">
<title>Node4</title>
<g id="a_Node000004"><a xlink:href="sifman_8c_source.html" target="_top" xlink:title=" ">
<polygon fill="white" stroke="#666666" points="358,-30.5 246,-30.5 246,0 358,0 358,-30.5"/>
<text text-anchor="start" x="254" y="-17" font-family="Helvetica,sans-Serif" font-size="10.00">iop/system/sifman/src</text>
<text text-anchor="middle" x="302" y="-5.75" font-family="Helvetica,sans-Serif" font-size="10.00">/sifman.c</text>
</a>
</g>
</g>
<!-- Node1&#45;&gt;Node4 -->
<g id="edge3_Node000001_Node000004" class="edge">
<title>Node1&#45;&gt;Node4</title>
<g id="a_edge3_Node000001_Node000004"><a xlink:title=" ">
<path fill="none" stroke="#63b8ff" d="M217.06,-60.79C235.53,-51.11 257.32,-39.68 274.2,-30.83"/>
<polygon fill="#63b8ff" stroke="#63b8ff" points="215.48,-57.67 208.25,-65.41 218.73,-63.87 215.48,-57.67"/>
</a>
</g>
</g>
</g>
</svg>
