<?xml version="1.0" encoding="UTF-8" standalone="no"?>
<!DOCTYPE svg PUBLIC "-//W3C//DTD SVG 1.1//EN"
 "http://www.w3.org/Graphics/SVG/1.1/DTD/svg11.dtd">
<!-- Generated by graphviz version 2.43.0 (0)
 -->
<!-- Title: ee/rpc/memorycard/src/libmc.c Pages: 1 -->
<svg width="541pt" height="319pt"
 viewBox="0.00 0.00 541.00 319.00" xmlns="http://www.w3.org/2000/svg" xmlns:xlink="http://www.w3.org/1999/xlink">
<g id="graph0" class="graph" transform="scale(1 1) rotate(0) translate(4 315)">
<title>ee/rpc/memorycard/src/libmc.c</title>
<polygon fill="white" stroke="transparent" points="-4,4 -4,-315 537,-315 537,4 -4,4"/>
<!-- Node1 -->
<g id="node1" class="node">
<title>Node1</title>
<g id="a_node1"><a xlink:title=" ">
<polygon fill="#bfbfbf" stroke="black" points="173.5,-280.5 173.5,-310.5 302.5,-310.5 302.5,-280.5 173.5,-280.5"/>
<text text-anchor="start" x="181.5" y="-298.5" font-family="Helvetica,sans-Serif" font-size="10.00">ee/rpc/memorycard/src</text>
<text text-anchor="middle" x="238" y="-287.5" font-family="Helvetica,sans-Serif" font-size="10.00">/libmc.c</text>
</a>
</g>
</g>
<!-- Node2 -->
<g id="node2" class="node">
<title>Node2</title>
<g id="a_node2"><a xlink:href="tamtypes_8h.html" target="_top" xlink:title=" ">
<polygon fill="white" stroke="black" points="99,-0.5 99,-19.5 171,-19.5 171,-0.5 99,-0.5"/>
<text text-anchor="middle" x="135" y="-7.5" font-family="Helvetica,sans-Serif" font-size="10.00">tamtypes.h</text>
</a>
</g>
</g>
<!-- Node1&#45;&gt;Node2 -->
<g id="edge1" class="edge">
<title>Node1&#45;&gt;Node2</title>
<path fill="none" stroke="midnightblue" d="M173.28,-290.33C102.8,-281.86 0,-256.27 0,-179 0,-179 0,-179 0,-121 0,-70.31 57.91,-38.83 97.88,-23.14"/>
<polygon fill="midnightblue" stroke="midnightblue" points="99.22,-26.38 107.35,-19.58 96.76,-19.82 99.22,-26.38"/>
</g>
<!-- Node3 -->
<g id="node3" class="node">
<title>Node3</title>
<g id="a_node3"><a xlink:href="kernel_8h.html" target="_top" xlink:title=" ">
<polygon fill="white" stroke="black" points="243,-112.5 243,-131.5 299,-131.5 299,-112.5 243,-112.5"/>
<text text-anchor="middle" x="271" y="-119.5" font-family="Helvetica,sans-Serif" font-size="10.00">kernel.h</text>
</a>
</g>
</g>
<!-- Node1&#45;&gt;Node3 -->
<g id="edge2" class="edge">
<title>Node1&#45;&gt;Node3</title>
<path fill="none" stroke="midnightblue" d="M211.44,-280.47C198.17,-271.88 183.39,-259.55 176,-244 172.18,-235.97 173.96,-232.65 176,-224 182.39,-196.92 185.62,-188.89 204,-168 215.28,-155.18 231,-144.37 244.39,-136.56"/>
<polygon fill="midnightblue" stroke="midnightblue" points="246.17,-139.57 253.19,-131.64 242.75,-133.46 246.17,-139.57"/>
</g>
<!-- Node8 -->
<g id="node8" class="node">
<title>Node8</title>
<g id="a_node8"><a xlink:title=" ">
<polygon fill="white" stroke="#bfbfbf" points="212.5,-168.5 212.5,-187.5 265.5,-187.5 265.5,-168.5 212.5,-168.5"/>
<text text-anchor="middle" x="239" y="-175.5" font-family="Helvetica,sans-Serif" font-size="10.00">sifrpc.h</text>
</a>
</g>
</g>
<!-- Node1&#45;&gt;Node8 -->
<g id="edge9" class="edge">
<title>Node1&#45;&gt;Node8</title>
<path fill="none" stroke="midnightblue" d="M241.58,-280.49C244.79,-266.29 248.73,-243.67 247,-224 246.22,-215.2 244.61,-205.54 243.03,-197.43"/>
<polygon fill="midnightblue" stroke="midnightblue" points="246.44,-196.65 240.99,-187.57 239.59,-198.07 246.44,-196.65"/>
</g>
<!-- Node9 -->
<g id="node9" class="node">
<title>Node9</title>
<g id="a_node9"><a xlink:href="string_8h_source.html" target="_top" xlink:title=" ">
<polygon fill="white" stroke="black" points="386.5,-224.5 386.5,-243.5 439.5,-243.5 439.5,-224.5 386.5,-224.5"/>
<text text-anchor="middle" x="413" y="-231.5" font-family="Helvetica,sans-Serif" font-size="10.00">string.h</text>
</a>
</g>
</g>
<!-- Node1&#45;&gt;Node9 -->
<g id="edge10" class="edge">
<title>Node1&#45;&gt;Node9</title>
<path fill="none" stroke="midnightblue" d="M279.47,-280.4C309.58,-270.16 349.85,-256.47 378.27,-246.81"/>
<polygon fill="midnightblue" stroke="midnightblue" points="379.45,-250.1 387.79,-243.57 377.2,-243.48 379.45,-250.1"/>
</g>
<!-- Node16 -->
<g id="node16" class="node">
<title>Node16</title>
<g id="a_node16"><a xlink:href="iopcontrol_8h.html" target="_top" xlink:title=" ">
<polygon fill="white" stroke="black" points="294,-224.5 294,-243.5 368,-243.5 368,-224.5 294,-224.5"/>
<text text-anchor="middle" x="331" y="-231.5" font-family="Helvetica,sans-Serif" font-size="10.00">iopcontrol.h</text>
</a>
</g>
</g>
<!-- Node1&#45;&gt;Node16 -->
<g id="edge21" class="edge">
<title>Node1&#45;&gt;Node16</title>
<path fill="none" stroke="midnightblue" d="M260.04,-280.4C274.81,-270.95 294.18,-258.56 308.95,-249.11"/>
<polygon fill="midnightblue" stroke="midnightblue" points="310.93,-252 317.47,-243.66 307.16,-246.1 310.93,-252"/>
</g>
<!-- Node17 -->
<g id="node17" class="node">
<title>Node17</title>
<g id="a_node17"><a xlink:href="libmc_8h.html" target="_top" xlink:title=" ">
<polygon fill="white" stroke="black" points="184.5,-224.5 184.5,-243.5 237.5,-243.5 237.5,-224.5 184.5,-224.5"/>
<text text-anchor="middle" x="211" y="-231.5" font-family="Helvetica,sans-Serif" font-size="10.00">libmc.h</text>
</a>
</g>
</g>
<!-- Node1&#45;&gt;Node17 -->
<g id="edge22" class="edge">
<title>Node1&#45;&gt;Node17</title>
<path fill="none" stroke="midnightblue" d="M231.6,-280.4C227.88,-272.2 223.15,-261.78 219.17,-252.99"/>
<polygon fill="midnightblue" stroke="midnightblue" points="222.25,-251.32 214.93,-243.66 215.87,-254.21 222.25,-251.32"/>
</g>
<!-- Node4 -->
<g id="node4" class="node">
<title>Node4</title>
<g id="a_node4"><a xlink:title=" ">
<polygon fill="white" stroke="#bfbfbf" points="365,-0.5 365,-19.5 421,-19.5 421,-0.5 365,-0.5"/>
<text text-anchor="middle" x="393" y="-7.5" font-family="Helvetica,sans-Serif" font-size="10.00">stddef.h</text>
</a>
</g>
</g>
<!-- Node3&#45;&gt;Node4 -->
<g id="edge3" class="edge">
<title>Node3&#45;&gt;Node4</title>
<path fill="none" stroke="midnightblue" d="M299.27,-115.28C334.02,-107.61 389.88,-92.98 402,-76 411.6,-62.55 407.43,-43.48 402.02,-29.47"/>
<polygon fill="midnightblue" stroke="midnightblue" points="405.06,-27.68 397.84,-19.92 398.64,-30.49 405.06,-27.68"/>
</g>
<!-- Node5 -->
<g id="node5" class="node">
<title>Node5</title>
<g id="a_node5"><a xlink:title=" ">
<polygon fill="white" stroke="#bfbfbf" points="477,-56.5 477,-75.5 533,-75.5 533,-56.5 477,-56.5"/>
<text text-anchor="middle" x="505" y="-63.5" font-family="Helvetica,sans-Serif" font-size="10.00">stdarg.h</text>
</a>
</g>
</g>
<!-- Node3&#45;&gt;Node5 -->
<g id="edge4" class="edge">
<title>Node3&#45;&gt;Node5</title>
<path fill="none" stroke="midnightblue" d="M299.23,-114.49C341.13,-104.82 419.88,-86.64 466.87,-75.8"/>
<polygon fill="midnightblue" stroke="midnightblue" points="467.72,-79.2 476.67,-73.54 466.14,-72.38 467.72,-79.2"/>
</g>
<!-- Node6 -->
<g id="node6" class="node">
<title>Node6</title>
<g id="a_node6"><a xlink:href="sifdma_8h.html" target="_top" xlink:title=" ">
<polygon fill="white" stroke="black" points="143.5,-56.5 143.5,-75.5 202.5,-75.5 202.5,-56.5 143.5,-56.5"/>
<text text-anchor="middle" x="173" y="-63.5" font-family="Helvetica,sans-Serif" font-size="10.00">sifdma.h</text>
</a>
</g>
</g>
<!-- Node3&#45;&gt;Node6 -->
<g id="edge5" class="edge">
<title>Node3&#45;&gt;Node6</title>
<path fill="none" stroke="midnightblue" d="M255.25,-112.32C239.68,-103.74 215.62,-90.49 197.54,-80.52"/>
<polygon fill="midnightblue" stroke="midnightblue" points="199.15,-77.42 188.71,-75.65 195.78,-83.55 199.15,-77.42"/>
</g>
<!-- Node7 -->
<g id="node7" class="node">
<title>Node7</title>
<g id="a_node7"><a xlink:href="mipscopaccess_8h.html" target="_top" xlink:title=" ">
<polygon fill="white" stroke="black" points="221,-56.5 221,-75.5 321,-75.5 321,-56.5 221,-56.5"/>
<text text-anchor="middle" x="271" y="-63.5" font-family="Helvetica,sans-Serif" font-size="10.00">mipscopaccess.h</text>
</a>
</g>
</g>
<!-- Node3&#45;&gt;Node7 -->
<g id="edge7" class="edge">
<title>Node3&#45;&gt;Node7</title>
<path fill="none" stroke="midnightblue" d="M271,-112.08C271,-105.01 271,-94.86 271,-85.99"/>
<polygon fill="midnightblue" stroke="midnightblue" points="274.5,-85.75 271,-75.75 267.5,-85.75 274.5,-85.75"/>
</g>
<!-- Node6&#45;&gt;Node2 -->
<g id="edge6" class="edge">
<title>Node6&#45;&gt;Node2</title>
<path fill="none" stroke="midnightblue" d="M166.73,-56.08C161.36,-48.46 153.48,-37.26 146.92,-27.94"/>
<polygon fill="midnightblue" stroke="midnightblue" points="149.78,-25.91 141.16,-19.75 144.05,-29.94 149.78,-25.91"/>
</g>
<!-- Node7&#45;&gt;Node2 -->
<g id="edge8" class="edge">
<title>Node7&#45;&gt;Node2</title>
<path fill="none" stroke="midnightblue" d="M249.45,-56.44C226.97,-47.52 191.51,-33.44 166.02,-23.32"/>
<polygon fill="midnightblue" stroke="midnightblue" points="167.03,-19.95 156.45,-19.52 164.45,-26.46 167.03,-19.95"/>
</g>
<!-- Node10 -->
<g id="node10" class="node">
<title>Node10</title>
<g id="a_node10"><a xlink:href="sysclib_8h.html" target="_top" xlink:title=" ">
<polygon fill="white" stroke="black" points="379.5,-168.5 379.5,-187.5 438.5,-187.5 438.5,-168.5 379.5,-168.5"/>
<text text-anchor="middle" x="409" y="-175.5" font-family="Helvetica,sans-Serif" font-size="10.00">sysclib.h</text>
</a>
</g>
</g>
<!-- Node9&#45;&gt;Node10 -->
<g id="edge11" class="edge">
<title>Node9&#45;&gt;Node10</title>
<path fill="none" stroke="midnightblue" d="M412.34,-224.08C411.82,-217.01 411.06,-206.86 410.41,-197.99"/>
<polygon fill="midnightblue" stroke="midnightblue" points="413.88,-197.47 409.65,-187.75 406.9,-197.98 413.88,-197.47"/>
</g>
<!-- Node10&#45;&gt;Node5 -->
<g id="edge17" class="edge">
<title>Node10&#45;&gt;Node5</title>
<path fill="none" stroke="midnightblue" d="M438.9,-173.03C463.44,-168.02 496.69,-156.83 513,-132 522.05,-118.22 518.28,-99.19 513.31,-85.28"/>
<polygon fill="midnightblue" stroke="midnightblue" points="516.47,-83.77 509.47,-75.82 509.99,-86.4 516.47,-83.77"/>
</g>
<!-- Node11 -->
<g id="node11" class="node">
<title>Node11</title>
<g id="a_node11"><a xlink:title=" ">
<polygon fill="white" stroke="#bfbfbf" points="450.5,-112.5 450.5,-131.5 503.5,-131.5 503.5,-112.5 450.5,-112.5"/>
<text text-anchor="middle" x="477" y="-119.5" font-family="Helvetica,sans-Serif" font-size="10.00">types.h</text>
</a>
</g>
</g>
<!-- Node10&#45;&gt;Node11 -->
<g id="edge12" class="edge">
<title>Node10&#45;&gt;Node11</title>
<path fill="none" stroke="midnightblue" d="M419.93,-168.32C430.17,-160.18 445.72,-147.84 458,-138.09"/>
<polygon fill="midnightblue" stroke="midnightblue" points="460.22,-140.79 465.88,-131.83 455.87,-135.31 460.22,-140.79"/>
</g>
<!-- Node12 -->
<g id="node12" class="node">
<title>Node12</title>
<g id="a_node12"><a xlink:href="irx_8h.html" target="_top" xlink:title=" ">
<polygon fill="white" stroke="black" points="323,-112.5 323,-131.5 361,-131.5 361,-112.5 323,-112.5"/>
<text text-anchor="middle" x="342" y="-119.5" font-family="Helvetica,sans-Serif" font-size="10.00">irx.h</text>
</a>
</g>
</g>
<!-- Node10&#45;&gt;Node12 -->
<g id="edge13" class="edge">
<title>Node10&#45;&gt;Node12</title>
<path fill="none" stroke="midnightblue" d="M398.24,-168.32C388.23,-160.26 373.11,-148.08 361.07,-138.37"/>
<polygon fill="midnightblue" stroke="midnightblue" points="362.94,-135.38 352.96,-131.83 358.55,-140.83 362.94,-135.38"/>
</g>
<!-- Node14 -->
<g id="node14" class="node">
<title>Node14</title>
<g id="a_node14"><a xlink:href="setjmp_8h.html" target="_top" xlink:title=" ">
<polygon fill="white" stroke="black" points="66.5,-56.5 66.5,-75.5 125.5,-75.5 125.5,-56.5 66.5,-56.5"/>
<text text-anchor="middle" x="96" y="-63.5" font-family="Helvetica,sans-Serif" font-size="10.00">setjmp.h</text>
</a>
</g>
</g>
<!-- Node10&#45;&gt;Node14 -->
<g id="edge18" class="edge">
<title>Node10&#45;&gt;Node14</title>
<path fill="none" stroke="midnightblue" d="M379.38,-171.17C344.17,-163.83 283.88,-149.98 234,-132 193.17,-117.28 148.07,-94.77 120.89,-80.48"/>
<polygon fill="midnightblue" stroke="midnightblue" points="122.2,-77.21 111.73,-75.61 118.92,-83.39 122.2,-77.21"/>
</g>
<!-- Node15 -->
<g id="node15" class="node">
<title>Node15</title>
<g id="a_node15"><a xlink:href="ctype_8h.html" target="_top" xlink:title=" ">
<polygon fill="white" stroke="black" points="379.5,-112.5 379.5,-131.5 432.5,-131.5 432.5,-112.5 379.5,-112.5"/>
<text text-anchor="middle" x="406" y="-119.5" font-family="Helvetica,sans-Serif" font-size="10.00">ctype.h</text>
</a>
</g>
</g>
<!-- Node10&#45;&gt;Node15 -->
<g id="edge20" class="edge">
<title>Node10&#45;&gt;Node15</title>
<path fill="none" stroke="midnightblue" d="M408.5,-168.08C408.11,-161.01 407.55,-150.86 407.05,-141.99"/>
<polygon fill="midnightblue" stroke="midnightblue" points="410.54,-141.54 406.49,-131.75 403.55,-141.93 410.54,-141.54"/>
</g>
<!-- Node13 -->
<g id="node13" class="node">
<title>Node13</title>
<g id="a_node13"><a xlink:href="iop_2kernel_2include_2types_8h_source.html" target="_top" xlink:title=" ">
<polygon fill="white" stroke="black" points="339.5,-56.5 339.5,-75.5 392.5,-75.5 392.5,-56.5 339.5,-56.5"/>
<text text-anchor="middle" x="366" y="-63.5" font-family="Helvetica,sans-Serif" font-size="10.00">types.h</text>
</a>
</g>
</g>
<!-- Node12&#45;&gt;Node13 -->
<g id="edge14" class="edge">
<title>Node12&#45;&gt;Node13</title>
<path fill="none" stroke="midnightblue" d="M345.96,-112.08C349.21,-104.77 353.92,-94.18 357.95,-85.1"/>
<polygon fill="midnightblue" stroke="midnightblue" points="361.25,-86.31 362.11,-75.75 354.85,-83.47 361.25,-86.31"/>
</g>
<!-- Node13&#45;&gt;Node2 -->
<g id="edge16" class="edge">
<title>Node13&#45;&gt;Node2</title>
<path fill="none" stroke="midnightblue" d="M339.28,-58.26C336.15,-57.49 333.01,-56.72 330,-56 279.19,-43.79 220.77,-30.39 181.23,-21.42"/>
<polygon fill="midnightblue" stroke="midnightblue" points="181.87,-17.98 171.35,-19.18 180.32,-24.8 181.87,-17.98"/>
</g>
<!-- Node13&#45;&gt;Node4 -->
<g id="edge15" class="edge">
<title>Node13&#45;&gt;Node4</title>
<path fill="none" stroke="midnightblue" d="M370.46,-56.08C374.15,-48.69 379.52,-37.95 384.09,-28.81"/>
<polygon fill="midnightblue" stroke="midnightblue" points="387.28,-30.26 388.62,-19.75 381.02,-27.13 387.28,-30.26"/>
</g>
<!-- Node14&#45;&gt;Node2 -->
<g id="edge19" class="edge">
<title>Node14&#45;&gt;Node2</title>
<path fill="none" stroke="midnightblue" d="M102.44,-56.08C107.95,-48.46 116.03,-37.26 122.76,-27.94"/>
<polygon fill="midnightblue" stroke="midnightblue" points="125.66,-29.91 128.68,-19.75 119.99,-25.81 125.66,-29.91"/>
</g>
<!-- Node17&#45;&gt;Node8 -->
<g id="edge26" class="edge">
<title>Node17&#45;&gt;Node8</title>
<path fill="none" stroke="midnightblue" d="M215.62,-224.08C219.46,-216.69 225.02,-205.95 229.76,-196.81"/>
<polygon fill="midnightblue" stroke="midnightblue" points="232.97,-198.24 234.46,-187.75 226.75,-195.02 232.97,-198.24"/>
</g>
<!-- Node18 -->
<g id="node18" class="node">
<title>Node18</title>
<g id="a_node18"><a xlink:href="libmc-common_8h.html" target="_top" xlink:title=" ">
<polygon fill="white" stroke="black" points="28.5,-168.5 28.5,-187.5 127.5,-187.5 127.5,-168.5 28.5,-168.5"/>
<text text-anchor="middle" x="78" y="-175.5" font-family="Helvetica,sans-Serif" font-size="10.00">libmc&#45;common.h</text>
</a>
</g>
</g>
<!-- Node17&#45;&gt;Node18 -->
<g id="edge23" class="edge">
<title>Node17&#45;&gt;Node18</title>
<path fill="none" stroke="midnightblue" d="M189.93,-224.44C167.94,-215.52 133.27,-201.44 108.34,-191.32"/>
<polygon fill="midnightblue" stroke="midnightblue" points="109.56,-188.04 98.98,-187.52 106.92,-194.52 109.56,-188.04"/>
</g>
<!-- Node18&#45;&gt;Node2 -->
<g id="edge24" class="edge">
<title>Node18&#45;&gt;Node2</title>
<path fill="none" stroke="midnightblue" d="M72.89,-168.41C61.24,-147.6 35.35,-93.48 57,-56 65.68,-40.98 81.49,-30.52 96.62,-23.5"/>
<polygon fill="midnightblue" stroke="midnightblue" points="98.05,-26.69 105.88,-19.56 95.31,-20.25 98.05,-26.69"/>
</g>
<!-- Node19 -->
<g id="node19" class="node">
<title>Node19</title>
<g id="a_node19"><a xlink:href="errno_8h.html" target="_top" xlink:title=" ">
<polygon fill="white" stroke="black" points="66.5,-112.5 66.5,-131.5 117.5,-131.5 117.5,-112.5 66.5,-112.5"/>
<text text-anchor="middle" x="92" y="-119.5" font-family="Helvetica,sans-Serif" font-size="10.00">errno.h</text>
</a>
</g>
</g>
<!-- Node18&#45;&gt;Node19 -->
<g id="edge25" class="edge">
<title>Node18&#45;&gt;Node19</title>
<path fill="none" stroke="midnightblue" d="M80.31,-168.08C82.17,-160.93 84.84,-150.64 87.15,-141.69"/>
<polygon fill="midnightblue" stroke="midnightblue" points="90.61,-142.31 89.73,-131.75 83.83,-140.55 90.61,-142.31"/>
</g>
</g>
</svg>
