<?xml version="1.0" encoding="UTF-8" standalone="no"?>
<!DOCTYPE svg PUBLIC "-//W3C//DTD SVG 1.1//EN"
 "http://www.w3.org/Graphics/SVG/1.1/DTD/svg11.dtd">
<!-- Generated by graphviz version 2.43.0 (0)
 -->
<!-- Title: common/include/libmc&#45;common.h Pages: 1 -->
<svg width="1514pt" height="240pt"
 viewBox="0.00 0.00 1513.50 240.00" xmlns="http://www.w3.org/2000/svg" xmlns:xlink="http://www.w3.org/1999/xlink">
<g id="graph0" class="graph" transform="scale(1 1) rotate(0) translate(4 236)">
<title>common/include/libmc&#45;common.h</title>
<polygon fill="white" stroke="transparent" points="-4,4 -4,-236 1509.5,-236 1509.5,4 -4,4"/>
<!-- Node1 -->
<g id="node1" class="node">
<title>Node1</title>
<g id="a_node1"><a xlink:title=" ">
<polygon fill="#bfbfbf" stroke="black" points="387.5,-201.5 387.5,-231.5 515.5,-231.5 515.5,-201.5 387.5,-201.5"/>
<text text-anchor="start" x="395.5" y="-219.5" font-family="Helvetica,sans-Serif" font-size="10.00">common/include/libmc</text>
<text text-anchor="middle" x="451.5" y="-208.5" font-family="Helvetica,sans-Serif" font-size="10.00">&#45;common.h</text>
</a>
</g>
</g>
<!-- Node2 -->
<g id="node2" class="node">
<title>Node2</title>
<g id="a_node2"><a xlink:href="libmc_8h.html" target="_top" xlink:title=" ">
<polygon fill="white" stroke="black" points="295.5,-134.5 295.5,-164.5 445.5,-164.5 445.5,-134.5 295.5,-134.5"/>
<text text-anchor="start" x="303.5" y="-152.5" font-family="Helvetica,sans-Serif" font-size="10.00">ee/rpc/memorycard/include</text>
<text text-anchor="middle" x="370.5" y="-141.5" font-family="Helvetica,sans-Serif" font-size="10.00">/libmc.h</text>
</a>
</g>
</g>
<!-- Node1&#45;&gt;Node2 -->
<g id="edge1" class="edge">
<title>Node1&#45;&gt;Node2</title>
<path fill="none" stroke="midnightblue" d="M425.81,-194.88C413.5,-185.01 399.07,-173.43 388.04,-164.58"/>
<polygon fill="midnightblue" stroke="midnightblue" points="423.93,-197.87 433.92,-201.4 428.32,-192.41 423.93,-197.87"/>
</g>
<!-- Node4 -->
<g id="node4" class="node">
<title>Node4</title>
<g id="a_node4"><a xlink:href="mcman_8h.html" target="_top" xlink:title=" ">
<polygon fill="white" stroke="black" points="693,-134.5 693,-164.5 830,-164.5 830,-134.5 693,-134.5"/>
<text text-anchor="start" x="701" y="-152.5" font-family="Helvetica,sans-Serif" font-size="10.00">iop/memorycard/mcman</text>
<text text-anchor="middle" x="761.5" y="-141.5" font-family="Helvetica,sans-Serif" font-size="10.00">/include/mcman.h</text>
</a>
</g>
</g>
<!-- Node1&#45;&gt;Node4 -->
<g id="edge3" class="edge">
<title>Node1&#45;&gt;Node4</title>
<path fill="none" stroke="midnightblue" d="M525.78,-199.92C577.17,-189.15 644.98,-174.93 694.67,-164.51"/>
<polygon fill="midnightblue" stroke="midnightblue" points="524.8,-196.55 515.73,-202.03 526.24,-203.41 524.8,-196.55"/>
</g>
<!-- Node3 -->
<g id="node3" class="node">
<title>Node3</title>
<g id="a_node3"><a xlink:href="libmc_8c.html" target="_top" xlink:title=" ">
<polygon fill="white" stroke="black" points="0,-67.5 0,-97.5 129,-97.5 129,-67.5 0,-67.5"/>
<text text-anchor="start" x="8" y="-85.5" font-family="Helvetica,sans-Serif" font-size="10.00">ee/rpc/memorycard/src</text>
<text text-anchor="middle" x="64.5" y="-74.5" font-family="Helvetica,sans-Serif" font-size="10.00">/libmc.c</text>
</a>
</g>
</g>
<!-- Node2&#45;&gt;Node3 -->
<g id="edge2" class="edge">
<title>Node2&#45;&gt;Node3</title>
<path fill="none" stroke="midnightblue" d="M294.52,-132.36C243.65,-121.55 177.41,-107.48 129.09,-97.22"/>
<polygon fill="midnightblue" stroke="midnightblue" points="293.97,-135.82 304.48,-134.48 295.42,-128.97 293.97,-135.82"/>
</g>
<!-- Node5 -->
<g id="node5" class="node">
<title>Node5</title>
<g id="a_node5"><a xlink:href="iop_2memorycard_2mcman_2src_2main_8c_source.html" target="_top" xlink:title=" ">
<polygon fill="white" stroke="black" points="147,-67.5 147,-97.5 284,-97.5 284,-67.5 147,-67.5"/>
<text text-anchor="start" x="155" y="-85.5" font-family="Helvetica,sans-Serif" font-size="10.00">iop/memorycard/mcman</text>
<text text-anchor="middle" x="215.5" y="-74.5" font-family="Helvetica,sans-Serif" font-size="10.00">/src/main.c</text>
</a>
</g>
</g>
<!-- Node4&#45;&gt;Node5 -->
<g id="edge4" class="edge">
<title>Node4&#45;&gt;Node5</title>
<path fill="none" stroke="midnightblue" d="M682.72,-141.93C589.34,-133.7 429.15,-118.19 292.5,-98 289.81,-97.6 287.07,-97.18 284.3,-96.73"/>
<polygon fill="midnightblue" stroke="midnightblue" points="682.67,-145.44 692.93,-142.82 683.28,-138.46 682.67,-145.44"/>
</g>
<!-- Node6 -->
<g id="node6" class="node">
<title>Node6</title>
<g id="a_node6"><a xlink:href="mcdev_8c_source.html" target="_top" xlink:title=" ">
<polygon fill="white" stroke="black" points="302,-67.5 302,-97.5 439,-97.5 439,-67.5 302,-67.5"/>
<text text-anchor="start" x="310" y="-85.5" font-family="Helvetica,sans-Serif" font-size="10.00">iop/memorycard/mcman</text>
<text text-anchor="middle" x="370.5" y="-74.5" font-family="Helvetica,sans-Serif" font-size="10.00">/src/mcdev.c</text>
</a>
</g>
</g>
<!-- Node4&#45;&gt;Node6 -->
<g id="edge5" class="edge">
<title>Node4&#45;&gt;Node6</title>
<path fill="none" stroke="midnightblue" d="M682.81,-136.34C619.46,-126.41 528.16,-111.83 448.5,-98 445.51,-97.48 442.47,-96.95 439.39,-96.4"/>
<polygon fill="midnightblue" stroke="midnightblue" points="682.31,-139.8 692.73,-137.89 683.39,-132.88 682.31,-139.8"/>
</g>
<!-- Node7 -->
<g id="node7" class="node">
<title>Node7</title>
<g id="a_node7"><a xlink:href="mciomanx__backing_8c_source.html" target="_top" xlink:title=" ">
<polygon fill="white" stroke="black" points="457.5,-67.5 457.5,-97.5 597.5,-97.5 597.5,-67.5 457.5,-67.5"/>
<text text-anchor="start" x="465.5" y="-85.5" font-family="Helvetica,sans-Serif" font-size="10.00">iop/memorycard/mcman</text>
<text text-anchor="middle" x="527.5" y="-74.5" font-family="Helvetica,sans-Serif" font-size="10.00">/src/mciomanx_backing.c</text>
</a>
</g>
</g>
<!-- Node4&#45;&gt;Node7 -->
<g id="edge6" class="edge">
<title>Node4&#45;&gt;Node7</title>
<path fill="none" stroke="midnightblue" d="M701.07,-131.71C662.99,-121.14 614.39,-107.63 578.3,-97.61"/>
<polygon fill="midnightblue" stroke="midnightblue" points="700.44,-135.17 711.01,-134.48 702.32,-128.43 700.44,-135.17"/>
</g>
<!-- Node8 -->
<g id="node8" class="node">
<title>Node8</title>
<g id="a_node8"><a xlink:href="mcsio2_8c_source.html" target="_top" xlink:title=" ">
<polygon fill="white" stroke="black" points="616,-67.5 616,-97.5 753,-97.5 753,-67.5 616,-67.5"/>
<text text-anchor="start" x="624" y="-85.5" font-family="Helvetica,sans-Serif" font-size="10.00">iop/memorycard/mcman</text>
<text text-anchor="middle" x="684.5" y="-74.5" font-family="Helvetica,sans-Serif" font-size="10.00">/src/mcsio2.c</text>
</a>
</g>
</g>
<!-- Node4&#45;&gt;Node8 -->
<g id="edge7" class="edge">
<title>Node4&#45;&gt;Node8</title>
<path fill="none" stroke="midnightblue" d="M737.08,-127.88C725.38,-118.01 711.66,-106.43 701.18,-97.58"/>
<polygon fill="midnightblue" stroke="midnightblue" points="734.89,-130.62 744.79,-134.4 739.41,-125.27 734.89,-130.62"/>
</g>
<!-- Node9 -->
<g id="node9" class="node">
<title>Node9</title>
<g id="a_node9"><a xlink:href="ps1mc__fio_8c_source.html" target="_top" xlink:title=" ">
<polygon fill="white" stroke="black" points="771,-67.5 771,-97.5 908,-97.5 908,-67.5 771,-67.5"/>
<text text-anchor="start" x="779" y="-85.5" font-family="Helvetica,sans-Serif" font-size="10.00">iop/memorycard/mcman</text>
<text text-anchor="middle" x="839.5" y="-74.5" font-family="Helvetica,sans-Serif" font-size="10.00">/src/ps1mc_fio.c</text>
</a>
</g>
</g>
<!-- Node4&#45;&gt;Node9 -->
<g id="edge8" class="edge">
<title>Node4&#45;&gt;Node9</title>
<path fill="none" stroke="midnightblue" d="M786.24,-127.88C798.09,-118.01 811.98,-106.43 822.61,-97.58"/>
<polygon fill="midnightblue" stroke="midnightblue" points="783.87,-125.31 778.42,-134.4 788.35,-130.68 783.87,-125.31"/>
</g>
<!-- Node10 -->
<g id="node10" class="node">
<title>Node10</title>
<g id="a_node10"><a xlink:href="ps2mc__fio_8c_source.html" target="_top" xlink:title=" ">
<polygon fill="white" stroke="black" points="926,-67.5 926,-97.5 1063,-97.5 1063,-67.5 926,-67.5"/>
<text text-anchor="start" x="934" y="-85.5" font-family="Helvetica,sans-Serif" font-size="10.00">iop/memorycard/mcman</text>
<text text-anchor="middle" x="994.5" y="-74.5" font-family="Helvetica,sans-Serif" font-size="10.00">/src/ps2mc_fio.c</text>
</a>
</g>
</g>
<!-- Node4&#45;&gt;Node10 -->
<g id="edge9" class="edge">
<title>Node4&#45;&gt;Node10</title>
<path fill="none" stroke="midnightblue" d="M821.67,-131.71C859.58,-121.14 907.99,-107.63 943.92,-97.61"/>
<polygon fill="midnightblue" stroke="midnightblue" points="820.46,-128.42 811.77,-134.48 822.34,-135.16 820.46,-128.42"/>
</g>
<!-- Node11 -->
<g id="node11" class="node">
<title>Node11</title>
<g id="a_node11"><a xlink:href="iop_2memorycard_2mcserv_2src_2irx__imports_8h_source.html" target="_top" xlink:title=" ">
<polygon fill="white" stroke="black" points="1081.5,-67.5 1081.5,-97.5 1217.5,-97.5 1217.5,-67.5 1081.5,-67.5"/>
<text text-anchor="start" x="1089.5" y="-85.5" font-family="Helvetica,sans-Serif" font-size="10.00">iop/memorycard/mcserv</text>
<text text-anchor="middle" x="1149.5" y="-74.5" font-family="Helvetica,sans-Serif" font-size="10.00">/src/irx_imports.h</text>
</a>
</g>
</g>
<!-- Node4&#45;&gt;Node11 -->
<g id="edge10" class="edge">
<title>Node4&#45;&gt;Node11</title>
<path fill="none" stroke="midnightblue" d="M840.43,-136.14C903.13,-126.2 993.01,-111.69 1071.5,-98 1074.76,-97.43 1078.09,-96.84 1081.45,-96.24"/>
<polygon fill="midnightblue" stroke="midnightblue" points="839.55,-132.74 830.22,-137.76 840.64,-139.65 839.55,-132.74"/>
</g>
<!-- Node12 -->
<g id="node12" class="node">
<title>Node12</title>
<g id="a_node12"><a xlink:href="mcserv_8h_source.html" target="_top" xlink:title=" ">
<polygon fill="white" stroke="black" points="1235.5,-67.5 1235.5,-97.5 1371.5,-97.5 1371.5,-67.5 1235.5,-67.5"/>
<text text-anchor="start" x="1243.5" y="-85.5" font-family="Helvetica,sans-Serif" font-size="10.00">iop/memorycard/mcserv</text>
<text text-anchor="middle" x="1303.5" y="-74.5" font-family="Helvetica,sans-Serif" font-size="10.00">/src/mcserv.h</text>
</a>
</g>
</g>
<!-- Node4&#45;&gt;Node12 -->
<g id="edge11" class="edge">
<title>Node4&#45;&gt;Node12</title>
<path fill="none" stroke="midnightblue" d="M840.4,-141.82C933.1,-133.54 1091.4,-118.03 1226.5,-98 1229.33,-97.58 1232.21,-97.13 1235.11,-96.66"/>
<polygon fill="midnightblue" stroke="midnightblue" points="839.91,-138.35 830.26,-142.72 840.53,-145.32 839.91,-138.35"/>
</g>
<!-- Node14 -->
<g id="node14" class="node">
<title>Node14</title>
<g id="a_node14"><a xlink:href="iop_2security_2daemon_2src_2irx__imports_8h_source.html" target="_top" xlink:title=" ">
<polygon fill="white" stroke="black" points="1389.5,-67.5 1389.5,-97.5 1505.5,-97.5 1505.5,-67.5 1389.5,-67.5"/>
<text text-anchor="start" x="1397.5" y="-85.5" font-family="Helvetica,sans-Serif" font-size="10.00">iop/security/daemon</text>
<text text-anchor="middle" x="1447.5" y="-74.5" font-family="Helvetica,sans-Serif" font-size="10.00">/src/irx_imports.h</text>
</a>
</g>
</g>
<!-- Node4&#45;&gt;Node14 -->
<g id="edge13" class="edge">
<title>Node4&#45;&gt;Node14</title>
<path fill="none" stroke="midnightblue" d="M840.1,-145.41C958.02,-140.02 1187.48,-126.63 1380.5,-98 1383.44,-97.56 1386.45,-97.07 1389.48,-96.55"/>
<polygon fill="midnightblue" stroke="midnightblue" points="839.91,-141.91 830.08,-145.86 840.22,-148.91 839.91,-141.91"/>
</g>
<!-- Node13 -->
<g id="node13" class="node">
<title>Node13</title>
<g id="a_node13"><a xlink:href="mcserv_8c_source.html" target="_top" xlink:title=" ">
<polygon fill="white" stroke="black" points="1235.5,-0.5 1235.5,-30.5 1371.5,-30.5 1371.5,-0.5 1235.5,-0.5"/>
<text text-anchor="start" x="1243.5" y="-18.5" font-family="Helvetica,sans-Serif" font-size="10.00">iop/memorycard/mcserv</text>
<text text-anchor="middle" x="1303.5" y="-7.5" font-family="Helvetica,sans-Serif" font-size="10.00">/src/mcserv.c</text>
</a>
</g>
</g>
<!-- Node12&#45;&gt;Node13 -->
<g id="edge12" class="edge">
<title>Node12&#45;&gt;Node13</title>
<path fill="none" stroke="midnightblue" d="M1303.5,-57.11C1303.5,-48.15 1303.5,-38.32 1303.5,-30.58"/>
<polygon fill="midnightblue" stroke="midnightblue" points="1300,-57.4 1303.5,-67.4 1307,-57.4 1300,-57.4"/>
</g>
<!-- Node15 -->
<g id="node15" class="node">
<title>Node15</title>
<g id="a_node15"><a xlink:href="daemon_8c_source.html" target="_top" xlink:title=" ">
<polygon fill="white" stroke="black" points="1389.5,-0.5 1389.5,-30.5 1505.5,-30.5 1505.5,-0.5 1389.5,-0.5"/>
<text text-anchor="start" x="1397.5" y="-18.5" font-family="Helvetica,sans-Serif" font-size="10.00">iop/security/daemon</text>
<text text-anchor="middle" x="1447.5" y="-7.5" font-family="Helvetica,sans-Serif" font-size="10.00">/src/daemon.c</text>
</a>
</g>
</g>
<!-- Node14&#45;&gt;Node15 -->
<g id="edge14" class="edge">
<title>Node14&#45;&gt;Node15</title>
<path fill="none" stroke="midnightblue" d="M1447.5,-57.11C1447.5,-48.15 1447.5,-38.32 1447.5,-30.58"/>
<polygon fill="midnightblue" stroke="midnightblue" points="1444,-57.4 1447.5,-67.4 1451,-57.4 1444,-57.4"/>
</g>
</g>
</svg>
