<?xml version="1.0" encoding="UTF-8" standalone="no"?>
<!DOCTYPE svg PUBLIC "-//W3C//DTD SVG 1.1//EN"
 "http://www.w3.org/Graphics/SVG/1.1/DTD/svg11.dtd">
<!-- Generated by graphviz version 2.43.0 (0)
 -->
<!-- Title: iop/tcpip/tcpip&#45;base/include/stdlib.h Pages: 1 -->
<svg width="6725pt" height="173pt"
 viewBox="0.00 0.00 6725.00 173.00" xmlns="http://www.w3.org/2000/svg" xmlns:xlink="http://www.w3.org/1999/xlink">
<g id="graph0" class="graph" transform="scale(1 1) rotate(0) translate(4 169)">
<title>iop/tcpip/tcpip&#45;base/include/stdlib.h</title>
<polygon fill="white" stroke="transparent" points="-4,4 -4,-169 6721,-169 6721,4 -4,4"/>
<!-- Node1 -->
<g id="node1" class="node">
<title>Node1</title>
<g id="a_node1"><a xlink:title=" ">
<polygon fill="#bfbfbf" stroke="black" points="3339.5,-134.5 3339.5,-164.5 3452.5,-164.5 3452.5,-134.5 3339.5,-134.5"/>
<text text-anchor="start" x="3347.5" y="-152.5" font-family="Helvetica,sans-Serif" font-size="10.00">iop/tcpip/tcpip&#45;base</text>
<text text-anchor="middle" x="3396" y="-141.5" font-family="Helvetica,sans-Serif" font-size="10.00">/include/stdlib.h</text>
</a>
</g>
</g>
<!-- Node2 -->
<g id="node2" class="node">
<title>Node2</title>
<g id="a_node2"><a xlink:href="ee_2dma_2src_2dma_8c_source.html" target="_top" xlink:title=" ">
<polygon fill="white" stroke="black" points="0,-73 0,-92 104,-92 104,-73 0,-73"/>
<text text-anchor="middle" x="52" y="-80" font-family="Helvetica,sans-Serif" font-size="10.00">ee/dma/src/dma.c</text>
</a>
</g>
</g>
<!-- Node1&#45;&gt;Node2 -->
<g id="edge1" class="edge">
<title>Node1&#45;&gt;Node2</title>
<path fill="none" stroke="midnightblue" d="M3329.14,-148.35C2891.43,-147.23 442.45,-139.19 113,-98 102.85,-96.73 91.93,-94.44 82.17,-92.05"/>
<polygon fill="midnightblue" stroke="midnightblue" points="3329.4,-151.85 3339.41,-148.37 3329.42,-144.85 3329.4,-151.85"/>
</g>
<!-- Node3 -->
<g id="node3" class="node">
<title>Node3</title>
<g id="a_node3"><a xlink:href="src_2elf_8c_source.html" target="_top" xlink:title=" ">
<polygon fill="white" stroke="black" points="122.5,-73 122.5,-92 241.5,-92 241.5,-73 122.5,-73"/>
<text text-anchor="middle" x="182" y="-80" font-family="Helvetica,sans-Serif" font-size="10.00">ee/elf&#45;loader/src/elf.c</text>
</a>
</g>
</g>
<!-- Node1&#45;&gt;Node3 -->
<g id="edge2" class="edge">
<title>Node1&#45;&gt;Node3</title>
<path fill="none" stroke="midnightblue" d="M3329.24,-148.21C2902.58,-146.23 565.46,-133.82 250,-98 238.73,-96.72 226.56,-94.42 215.68,-92.03"/>
<polygon fill="midnightblue" stroke="midnightblue" points="3329.24,-151.71 3339.25,-148.25 3329.27,-144.71 3329.24,-151.71"/>
</g>
<!-- Node4 -->
<g id="node4" class="node">
<title>Node4</title>
<g id="a_node4"><a xlink:href="loader_8c_source.html" target="_top" xlink:title=" ">
<polygon fill="white" stroke="black" points="259.5,-67.5 259.5,-97.5 388.5,-97.5 388.5,-67.5 259.5,-67.5"/>
<text text-anchor="start" x="267.5" y="-85.5" font-family="Helvetica,sans-Serif" font-size="10.00">ee/elf&#45;loader/src/loader</text>
<text text-anchor="middle" x="324" y="-74.5" font-family="Helvetica,sans-Serif" font-size="10.00">/src/loader.c</text>
</a>
</g>
</g>
<!-- Node1&#45;&gt;Node4 -->
<g id="edge3" class="edge">
<title>Node1&#45;&gt;Node4</title>
<path fill="none" stroke="midnightblue" d="M3329.43,-148.1C2915.09,-145.48 697.23,-130.08 397,-98 394.3,-97.71 391.56,-97.37 388.79,-96.99"/>
<polygon fill="midnightblue" stroke="midnightblue" points="3329.43,-151.6 3339.45,-148.16 3329.48,-144.6 3329.43,-151.6"/>
</g>
<!-- Node5 -->
<g id="node5" class="node">
<title>Node5</title>
<g id="a_node5"><a xlink:href="elf__loader__compat_8c_source.html" target="_top" xlink:title=" ">
<polygon fill="white" stroke="black" points="406.5,-67.5 406.5,-97.5 525.5,-97.5 525.5,-67.5 406.5,-67.5"/>
<text text-anchor="start" x="414.5" y="-85.5" font-family="Helvetica,sans-Serif" font-size="10.00">ee/elf&#45;loader2/src</text>
<text text-anchor="middle" x="466" y="-74.5" font-family="Helvetica,sans-Serif" font-size="10.00">/elf_loader_compat.c</text>
</a>
</g>
</g>
<!-- Node1&#45;&gt;Node5 -->
<g id="edge4" class="edge">
<title>Node1&#45;&gt;Node5</title>
<path fill="none" stroke="midnightblue" d="M3329.31,-148.08C2925.98,-145.44 820.47,-130.22 535,-98 531.96,-97.66 528.85,-97.24 525.73,-96.77"/>
<polygon fill="midnightblue" stroke="midnightblue" points="3329.33,-151.58 3339.36,-148.15 3329.38,-144.58 3329.33,-151.58"/>
</g>
<!-- Node6 -->
<g id="node6" class="node">
<title>Node6</title>
<g id="a_node6"><a xlink:href="elf__loader__stdio_8c_source.html" target="_top" xlink:title=" ">
<polygon fill="white" stroke="black" points="544,-67.5 544,-97.5 650,-97.5 650,-67.5 544,-67.5"/>
<text text-anchor="start" x="552" y="-85.5" font-family="Helvetica,sans-Serif" font-size="10.00">ee/elf&#45;loader2/src</text>
<text text-anchor="middle" x="597" y="-74.5" font-family="Helvetica,sans-Serif" font-size="10.00">/elf_loader_stdio.c</text>
</a>
</g>
</g>
<!-- Node1&#45;&gt;Node6 -->
<g id="edge5" class="edge">
<title>Node1&#45;&gt;Node6</title>
<path fill="none" stroke="midnightblue" d="M3329.4,-148.11C2936.66,-145.73 931.07,-131.94 659,-98 656.15,-97.64 653.24,-97.21 650.3,-96.72"/>
<polygon fill="midnightblue" stroke="midnightblue" points="3329.44,-151.61 3339.46,-148.17 3329.48,-144.61 3329.44,-151.61"/>
</g>
<!-- Node7 -->
<g id="node7" class="node">
<title>Node7</title>
<g id="a_node7"><a xlink:href="erl_8c.html" target="_top" xlink:title=" ">
<polygon fill="white" stroke="black" points="668,-73 668,-92 754,-92 754,-73 668,-73"/>
<text text-anchor="middle" x="711" y="-80" font-family="Helvetica,sans-Serif" font-size="10.00">ee/erl/src/erl.c</text>
</a>
</g>
</g>
<!-- Node1&#45;&gt;Node7 -->
<g id="edge6" class="edge">
<title>Node1&#45;&gt;Node7</title>
<path fill="none" stroke="midnightblue" d="M3329.16,-148.23C2944.74,-146.53 1023.35,-136.17 763,-98 754.28,-96.72 744.96,-94.43 736.64,-92.04"/>
<polygon fill="midnightblue" stroke="midnightblue" points="3329.28,-151.73 3339.29,-148.27 3329.31,-144.73 3329.28,-151.73"/>
</g>
<!-- Node8 -->
<g id="node8" class="node">
<title>Node8</title>
<g id="a_node8"><a xlink:href="hashtab_8c_source.html" target="_top" xlink:title=" ">
<polygon fill="white" stroke="black" points="772,-73 772,-92 884,-92 884,-73 772,-73"/>
<text text-anchor="middle" x="828" y="-80" font-family="Helvetica,sans-Serif" font-size="10.00">ee/erl/src/hashtab.c</text>
</a>
</g>
</g>
<!-- Node1&#45;&gt;Node8 -->
<g id="edge7" class="edge">
<title>Node1&#45;&gt;Node8</title>
<path fill="none" stroke="midnightblue" d="M3329.23,-147.95C2956.48,-144.76 1140.63,-127.82 893,-98 882.21,-96.7 870.58,-94.4 860.18,-92.01"/>
<polygon fill="midnightblue" stroke="midnightblue" points="3329.29,-151.45 3339.32,-148.03 3329.35,-144.45 3329.29,-151.45"/>
</g>
<!-- Node9 -->
<g id="node9" class="node">
<title>Node9</title>
<g id="a_node9"><a xlink:href="recycle_8c_source.html" target="_top" xlink:title=" ">
<polygon fill="white" stroke="black" points="902,-73 902,-92 1010,-92 1010,-73 902,-73"/>
<text text-anchor="middle" x="956" y="-80" font-family="Helvetica,sans-Serif" font-size="10.00">ee/erl/src/recycle.c</text>
</a>
</g>
</g>
<!-- Node1&#45;&gt;Node9 -->
<g id="edge8" class="edge">
<title>Node1&#45;&gt;Node9</title>
<path fill="none" stroke="midnightblue" d="M3329.43,-147.9C2968.45,-144.54 1253.36,-127.15 1019,-98 1008.53,-96.7 997.26,-94.4 987.18,-92.01"/>
<polygon fill="midnightblue" stroke="midnightblue" points="3329.43,-151.4 3339.46,-147.99 3329.5,-144.4 3329.43,-151.4"/>
</g>
<!-- Node10 -->
<g id="node10" class="node">
<title>Node10</title>
<g id="a_node10"><a xlink:href="fontx_8c_source.html" target="_top" xlink:title=" ">
<polygon fill="white" stroke="black" points="1028.5,-73 1028.5,-92 1133.5,-92 1133.5,-73 1028.5,-73"/>
<text text-anchor="middle" x="1081" y="-80" font-family="Helvetica,sans-Serif" font-size="10.00">ee/font/src/fontx.c</text>
</a>
</g>
</g>
<!-- Node1&#45;&gt;Node10 -->
<g id="edge9" class="edge">
<title>Node1&#45;&gt;Node10</title>
<path fill="none" stroke="midnightblue" d="M3329.01,-147.83C2978.61,-144.19 1364.25,-126.04 1143,-98 1132.69,-96.69 1121.59,-94.39 1111.68,-92"/>
<polygon fill="midnightblue" stroke="midnightblue" points="3329.21,-151.33 3339.25,-147.93 3329.29,-144.33 3329.21,-151.33"/>
</g>
<!-- Node11 -->
<g id="node11" class="node">
<title>Node11</title>
<g id="a_node11"><a xlink:href="fsfont_8c_source.html" target="_top" xlink:title=" ">
<polygon fill="white" stroke="black" points="1152,-73 1152,-92 1260,-92 1260,-73 1152,-73"/>
<text text-anchor="middle" x="1206" y="-80" font-family="Helvetica,sans-Serif" font-size="10.00">ee/font/src/fsfont.c</text>
</a>
</g>
</g>
<!-- Node1&#45;&gt;Node11 -->
<g id="edge10" class="edge">
<title>Node1&#45;&gt;Node11</title>
<path fill="none" stroke="midnightblue" d="M3328.93,-148.73C3014.19,-149.55 1681.66,-149.84 1269,-98 1258.64,-96.7 1247.5,-94.43 1237.5,-92.07"/>
<polygon fill="midnightblue" stroke="midnightblue" points="3329.27,-152.23 3339.26,-148.71 3329.25,-145.23 3329.27,-152.23"/>
</g>
<!-- Node12 -->
<g id="node12" class="node">
<title>Node12</title>
<g id="a_node12"><a xlink:href="graph__mode_8c_source.html" target="_top" xlink:title=" ">
<polygon fill="white" stroke="black" points="1278.5,-67.5 1278.5,-97.5 1385.5,-97.5 1385.5,-67.5 1278.5,-67.5"/>
<text text-anchor="start" x="1286.5" y="-85.5" font-family="Helvetica,sans-Serif" font-size="10.00">ee/graph/src/graph</text>
<text text-anchor="middle" x="1332" y="-74.5" font-family="Helvetica,sans-Serif" font-size="10.00">_mode.c</text>
</a>
</g>
</g>
<!-- Node1&#45;&gt;Node12 -->
<g id="edge11" class="edge">
<title>Node1&#45;&gt;Node12</title>
<path fill="none" stroke="midnightblue" d="M3329,-148.62C3025.95,-148.87 1781.51,-146.85 1395,-98 1391.99,-97.62 1388.92,-97.16 1385.83,-96.64"/>
<polygon fill="midnightblue" stroke="midnightblue" points="3329.38,-152.12 3339.38,-148.61 3329.38,-145.12 3329.38,-152.12"/>
</g>
<!-- Node13 -->
<g id="node13" class="node">
<title>Node13</title>
<g id="a_node13"><a xlink:href="cwd_8c_source.html" target="_top" xlink:title=" ">
<polygon fill="white" stroke="black" points="1404,-73 1404,-92 1522,-92 1522,-73 1404,-73"/>
<text text-anchor="middle" x="1463" y="-80" font-family="Helvetica,sans-Serif" font-size="10.00">ee/libcglue/src/cwd.c</text>
</a>
</g>
</g>
<!-- Node1&#45;&gt;Node13 -->
<g id="edge12" class="edge">
<title>Node1&#45;&gt;Node13</title>
<path fill="none" stroke="midnightblue" d="M3328.87,-148.33C3038.57,-147.33 1889.61,-140.72 1531,-98 1519.85,-96.67 1507.83,-94.4 1497.04,-92.03"/>
<polygon fill="midnightblue" stroke="midnightblue" points="3329.23,-151.83 3339.24,-148.36 3329.25,-144.83 3329.23,-151.83"/>
</g>
<!-- Node14 -->
<g id="node14" class="node">
<title>Node14</title>
<g id="a_node14"><a xlink:href="fdman_8c.html" target="_top" xlink:title=" ">
<polygon fill="white" stroke="black" points="1540,-73 1540,-92 1670,-92 1670,-73 1540,-73"/>
<text text-anchor="middle" x="1605" y="-80" font-family="Helvetica,sans-Serif" font-size="10.00">ee/libcglue/src/fdman.c</text>
</a>
</g>
</g>
<!-- Node1&#45;&gt;Node14 -->
<g id="edge13" class="edge">
<title>Node1&#45;&gt;Node14</title>
<path fill="none" stroke="midnightblue" d="M3328.84,-148C3053.12,-145.71 2007.27,-134.74 1679,-98 1666.9,-96.65 1653.83,-94.36 1642.08,-92"/>
<polygon fill="midnightblue" stroke="midnightblue" points="3329.06,-151.5 3339.09,-148.08 3329.12,-144.5 3329.06,-151.5"/>
</g>
<!-- Node15 -->
<g id="node15" class="node">
<title>Node15</title>
<g id="a_node15"><a xlink:href="libcglue_2src_2glue_8c_source.html" target="_top" xlink:title=" ">
<polygon fill="white" stroke="black" points="1688.5,-73 1688.5,-92 1807.5,-92 1807.5,-73 1688.5,-73"/>
<text text-anchor="middle" x="1748" y="-80" font-family="Helvetica,sans-Serif" font-size="10.00">ee/libcglue/src/glue.c</text>
</a>
</g>
</g>
<!-- Node1&#45;&gt;Node15 -->
<g id="edge14" class="edge">
<title>Node1&#45;&gt;Node15</title>
<path fill="none" stroke="midnightblue" d="M3329.05,-147.95C3067.68,-145.55 2115.76,-134.46 1816,-98 1804.86,-96.64 1792.83,-94.36 1782.04,-92"/>
<polygon fill="midnightblue" stroke="midnightblue" points="3329.12,-151.45 3339.15,-148.04 3329.18,-144.45 3329.12,-151.45"/>
</g>
<!-- Node16 -->
<g id="node16" class="node">
<title>Node16</title>
<g id="a_node16"><a xlink:href="lock_8c.html" target="_top" xlink:title=" ">
<polygon fill="white" stroke="black" points="1825.5,-73 1825.5,-92 1944.5,-92 1944.5,-73 1825.5,-73"/>
<text text-anchor="middle" x="1885" y="-80" font-family="Helvetica,sans-Serif" font-size="10.00">ee/libcglue/src/lock.c</text>
</a>
</g>
</g>
<!-- Node1&#45;&gt;Node16 -->
<g id="edge15" class="edge">
<title>Node1&#45;&gt;Node16</title>
<path fill="none" stroke="midnightblue" d="M3329.22,-147.72C3082.77,-144.58 2224.64,-131.45 1953,-98 1941.98,-96.64 1930.1,-94.39 1919.4,-92.06"/>
<polygon fill="midnightblue" stroke="midnightblue" points="3329.41,-151.22 3339.45,-147.84 3329.5,-144.22 3329.41,-151.22"/>
</g>
<!-- Node17 -->
<g id="node17" class="node">
<title>Node17</title>
<g id="a_node17"><a xlink:href="ps2sdkapi_8c.html" target="_top" xlink:title=" ">
<polygon fill="white" stroke="black" points="1962.5,-73 1962.5,-92 2109.5,-92 2109.5,-73 1962.5,-73"/>
<text text-anchor="middle" x="2036" y="-80" font-family="Helvetica,sans-Serif" font-size="10.00">ee/libcglue/src/ps2sdkapi.c</text>
</a>
</g>
</g>
<!-- Node1&#45;&gt;Node17 -->
<g id="edge16" class="edge">
<title>Node1&#45;&gt;Node17</title>
<path fill="none" stroke="midnightblue" d="M3329.32,-149.04C3139.39,-149.9 2579.48,-147.69 2118,-98 2104.92,-96.59 2090.78,-94.35 2077.98,-92.05"/>
<polygon fill="midnightblue" stroke="midnightblue" points="3329.45,-152.54 3339.43,-148.99 3329.41,-145.54 3329.45,-152.54"/>
</g>
<!-- Node18 -->
<g id="node18" class="node">
<title>Node18</title>
<g id="a_node18"><a xlink:href="rtc_8c.html" target="_top" xlink:title=" ">
<polygon fill="white" stroke="black" points="2127.5,-73 2127.5,-92 2238.5,-92 2238.5,-73 2127.5,-73"/>
<text text-anchor="middle" x="2183" y="-80" font-family="Helvetica,sans-Serif" font-size="10.00">ee/libcglue/src/rtc.c</text>
</a>
</g>
</g>
<!-- Node1&#45;&gt;Node18 -->
<g id="edge17" class="edge">
<title>Node1&#45;&gt;Node18</title>
<path fill="none" stroke="midnightblue" d="M3329.42,-147.11C3117.35,-142.43 2459.24,-125.99 2248,-98 2237.46,-96.6 2226.09,-94.34 2215.87,-92.01"/>
<polygon fill="midnightblue" stroke="midnightblue" points="3329.4,-150.61 3339.47,-147.33 3329.55,-143.61 3329.4,-150.61"/>
</g>
<!-- Node19 -->
<g id="node19" class="node">
<title>Node19</title>
<g id="a_node19"><a xlink:href="timezone_8c.html" target="_top" xlink:title=" ">
<polygon fill="white" stroke="black" points="2257,-73 2257,-92 2401,-92 2401,-73 2257,-73"/>
<text text-anchor="middle" x="2329" y="-80" font-family="Helvetica,sans-Serif" font-size="10.00">ee/libcglue/src/timezone.c</text>
</a>
</g>
</g>
<!-- Node1&#45;&gt;Node19 -->
<g id="edge18" class="edge">
<title>Node1&#45;&gt;Node19</title>
<path fill="none" stroke="midnightblue" d="M3329.25,-147.98C3169.78,-146.1 2754.3,-137.48 2410,-98 2397.23,-96.54 2383.42,-94.31 2370.89,-92.04"/>
<polygon fill="midnightblue" stroke="midnightblue" points="3329.34,-151.48 3339.38,-148.09 3329.42,-144.48 3329.34,-151.48"/>
</g>
<!-- Node20 -->
<g id="node20" class="node">
<title>Node20</title>
<g id="a_node20"><a xlink:href="libgs_2src_2draw_8c_source.html" target="_top" xlink:title=" ">
<polygon fill="white" stroke="black" points="2419.5,-73 2419.5,-92 2526.5,-92 2526.5,-73 2419.5,-73"/>
<text text-anchor="middle" x="2473" y="-80" font-family="Helvetica,sans-Serif" font-size="10.00">ee/libgs/src/draw.c</text>
</a>
</g>
</g>
<!-- Node1&#45;&gt;Node20 -->
<g id="edge19" class="edge">
<title>Node1&#45;&gt;Node20</title>
<path fill="none" stroke="midnightblue" d="M3329.15,-148.46C3183.87,-147.53 2828.76,-140.65 2535,-98 2525.04,-96.55 2514.33,-94.3 2504.66,-92"/>
<polygon fill="midnightblue" stroke="midnightblue" points="3329.23,-151.96 3339.25,-148.52 3329.27,-144.96 3329.23,-151.96"/>
</g>
<!-- Node21 -->
<g id="node21" class="node">
<title>Node21</title>
<g id="a_node21"><a xlink:href="prof_8c_source.html" target="_top" xlink:title=" ">
<polygon fill="white" stroke="black" points="2544.5,-67.5 2544.5,-97.5 2645.5,-97.5 2645.5,-67.5 2544.5,-67.5"/>
<text text-anchor="start" x="2552.5" y="-85.5" font-family="Helvetica,sans-Serif" font-size="10.00">ee/libprofglue/src</text>
<text text-anchor="middle" x="2595" y="-74.5" font-family="Helvetica,sans-Serif" font-size="10.00">/prof.c</text>
</a>
</g>
</g>
<!-- Node1&#45;&gt;Node21 -->
<g id="edge20" class="edge">
<title>Node1&#45;&gt;Node21</title>
<path fill="none" stroke="midnightblue" d="M3329.18,-147.72C3198.79,-145.37 2901.62,-135.92 2655,-98 2651.93,-97.53 2648.78,-96.98 2645.62,-96.37"/>
<polygon fill="midnightblue" stroke="midnightblue" points="3329.34,-151.22 3339.4,-147.9 3329.46,-144.23 3329.34,-151.22"/>
</g>
<!-- Node22 -->
<g id="node22" class="node">
<title>Node22</title>
<g id="a_node22"><a xlink:href="ps2__osal_8h_source.html" target="_top" xlink:title=" ">
<polygon fill="white" stroke="black" points="2663.5,-67.5 2663.5,-97.5 2782.5,-97.5 2782.5,-67.5 2663.5,-67.5"/>
<text text-anchor="start" x="2671.5" y="-85.5" font-family="Helvetica,sans-Serif" font-size="10.00">ee/libpthreadglue/src</text>
<text text-anchor="middle" x="2723" y="-74.5" font-family="Helvetica,sans-Serif" font-size="10.00">/include/ps2_osal.h</text>
</a>
</g>
</g>
<!-- Node1&#45;&gt;Node22 -->
<g id="edge21" class="edge">
<title>Node1&#45;&gt;Node22</title>
<path fill="none" stroke="midnightblue" d="M3328.99,-145.61C3217.22,-140.18 2985.86,-126.36 2792,-98 2788.97,-97.56 2785.88,-97.06 2782.76,-96.53"/>
<polygon fill="midnightblue" stroke="midnightblue" points="3328.95,-149.11 3339.11,-146.09 3329.29,-142.12 3328.95,-149.11"/>
</g>
<!-- Node25 -->
<g id="node25" class="node">
<title>Node25</title>
<g id="a_node25"><a xlink:href="vux_8c_source.html" target="_top" xlink:title=" ">
<polygon fill="white" stroke="black" points="2801,-73 2801,-92 2909,-92 2909,-73 2801,-73"/>
<text text-anchor="middle" x="2855" y="-80" font-family="Helvetica,sans-Serif" font-size="10.00">ee/libvux/src/vux.c</text>
</a>
</g>
</g>
<!-- Node1&#45;&gt;Node25 -->
<g id="edge24" class="edge">
<title>Node1&#45;&gt;Node25</title>
<path fill="none" stroke="midnightblue" d="M3329.1,-143.91C3236.52,-136.98 3064.31,-122.07 2919,-98 2909.33,-96.4 2898.94,-94.24 2889.4,-92.07"/>
<polygon fill="midnightblue" stroke="midnightblue" points="3328.94,-147.4 3339.17,-144.65 3329.46,-140.42 3328.94,-147.4"/>
</g>
<!-- Node26 -->
<g id="node26" class="node">
<title>Node26</title>
<g id="a_node26"><a xlink:href="libmpeg__core_8c_source.html" target="_top" xlink:title=" ">
<polygon fill="white" stroke="black" points="2927.5,-67.5 2927.5,-97.5 3046.5,-97.5 3046.5,-67.5 2927.5,-67.5"/>
<text text-anchor="start" x="2935.5" y="-85.5" font-family="Helvetica,sans-Serif" font-size="10.00">ee/mpeg/src/libmpeg</text>
<text text-anchor="middle" x="2987" y="-74.5" font-family="Helvetica,sans-Serif" font-size="10.00">_core.c</text>
</a>
</g>
</g>
<!-- Node1&#45;&gt;Node26 -->
<g id="edge25" class="edge">
<title>Node1&#45;&gt;Node26</title>
<path fill="none" stroke="midnightblue" d="M3329.03,-139.76C3260.32,-130.5 3150.42,-114.92 3056,-98 3052.99,-97.46 3049.91,-96.89 3046.8,-96.29"/>
<polygon fill="midnightblue" stroke="midnightblue" points="3328.91,-143.27 3339.28,-141.13 3329.84,-136.33 3328.91,-143.27"/>
</g>
<!-- Node27 -->
<g id="node27" class="node">
<title>Node27</title>
<g id="a_node27"><a xlink:href="ee_2network_2tcpip_2src_2include_2arch_2cc_8h_source.html" target="_top" xlink:title=" ">
<polygon fill="white" stroke="black" points="3065,-67.5 3065,-97.5 3181,-97.5 3181,-67.5 3065,-67.5"/>
<text text-anchor="start" x="3073" y="-85.5" font-family="Helvetica,sans-Serif" font-size="10.00">ee/network/tcpip/src</text>
<text text-anchor="middle" x="3123" y="-74.5" font-family="Helvetica,sans-Serif" font-size="10.00">/include/arch/cc.h</text>
</a>
</g>
</g>
<!-- Node1&#45;&gt;Node27 -->
<g id="edge26" class="edge">
<title>Node1&#45;&gt;Node27</title>
<path fill="none" stroke="midnightblue" d="M3329.7,-132.71C3284.39,-121.93 3224.9,-107.76 3181.38,-97.4"/>
<polygon fill="midnightblue" stroke="midnightblue" points="3328.9,-136.12 3339.43,-135.03 3330.52,-129.31 3328.9,-136.12"/>
</g>
<!-- Node28 -->
<g id="node28" class="node">
<title>Node28</title>
<g id="a_node28"><a xlink:href="ee_2network_2tcpip_2src_2sys__arch_8c_source.html" target="_top" xlink:title=" ">
<polygon fill="white" stroke="black" points="3199,-67.5 3199,-97.5 3315,-97.5 3315,-67.5 3199,-67.5"/>
<text text-anchor="start" x="3207" y="-85.5" font-family="Helvetica,sans-Serif" font-size="10.00">ee/network/tcpip/src</text>
<text text-anchor="middle" x="3257" y="-74.5" font-family="Helvetica,sans-Serif" font-size="10.00">/sys_arch.c</text>
</a>
</g>
</g>
<!-- Node1&#45;&gt;Node28 -->
<g id="edge27" class="edge">
<title>Node1&#45;&gt;Node28</title>
<path fill="none" stroke="midnightblue" d="M3356.72,-130.13C3334.63,-119.8 3307.49,-107.11 3287.1,-97.58"/>
<polygon fill="midnightblue" stroke="midnightblue" points="3355.3,-133.33 3365.84,-134.4 3358.26,-126.99 3355.3,-133.33"/>
</g>
<!-- Node29 -->
<g id="node29" class="node">
<title>Node29</title>
<g id="a_node29"><a xlink:href="packet_8c_source.html" target="_top" xlink:title=" ">
<polygon fill="white" stroke="black" points="3333.5,-73 3333.5,-92 3458.5,-92 3458.5,-73 3333.5,-73"/>
<text text-anchor="middle" x="3396" y="-80" font-family="Helvetica,sans-Serif" font-size="10.00">ee/packet/src/packet.c</text>
</a>
</g>
</g>
<!-- Node1&#45;&gt;Node29 -->
<g id="edge28" class="edge">
<title>Node1&#45;&gt;Node29</title>
<path fill="none" stroke="midnightblue" d="M3396,-124.25C3396,-113.02 3396,-100.38 3396,-92.19"/>
<polygon fill="midnightblue" stroke="midnightblue" points="3392.5,-124.4 3396,-134.4 3399.5,-124.4 3392.5,-124.4"/>
</g>
<!-- Node30 -->
<g id="node30" class="node">
<title>Node30</title>
<g id="a_node30"><a xlink:href="ahx__rpc_8c.html" target="_top" xlink:title=" ">
<polygon fill="white" stroke="black" points="3477,-67.5 3477,-97.5 3583,-97.5 3583,-67.5 3477,-67.5"/>
<text text-anchor="start" x="3485" y="-85.5" font-family="Helvetica,sans-Serif" font-size="10.00">ee/rpc/ahx/src/ahx</text>
<text text-anchor="middle" x="3530" y="-74.5" font-family="Helvetica,sans-Serif" font-size="10.00">_rpc.c</text>
</a>
</g>
</g>
<!-- Node1&#45;&gt;Node30 -->
<g id="edge29" class="edge">
<title>Node1&#45;&gt;Node30</title>
<path fill="none" stroke="midnightblue" d="M3434.15,-129.99C3455.39,-119.69 3481.41,-107.07 3500.98,-97.58"/>
<polygon fill="midnightblue" stroke="midnightblue" points="3432.55,-126.88 3425.08,-134.4 3435.6,-133.18 3432.55,-126.88"/>
</g>
<!-- Node31 -->
<g id="node31" class="node">
<title>Node31</title>
<g id="a_node31"><a xlink:href="file_xio__ps2sdk_8c.html" target="_top" xlink:title=" ">
<polygon fill="white" stroke="black" points="3601,-67.5 3601,-97.5 3699,-97.5 3699,-67.5 3601,-67.5"/>
<text text-anchor="start" x="3609" y="-85.5" font-family="Helvetica,sans-Serif" font-size="10.00">ee/rpc/filexio/src</text>
<text text-anchor="middle" x="3650" y="-74.5" font-family="Helvetica,sans-Serif" font-size="10.00">/fileXio_ps2sdk.c</text>
</a>
</g>
</g>
<!-- Node1&#45;&gt;Node31 -->
<g id="edge30" class="edge">
<title>Node1&#45;&gt;Node31</title>
<path fill="none" stroke="midnightblue" d="M3460.74,-131.93C3504.35,-120.77 3560.97,-106.28 3600.88,-96.07"/>
<polygon fill="midnightblue" stroke="midnightblue" points="3459.62,-128.61 3450.8,-134.48 3461.36,-135.39 3459.62,-128.61"/>
</g>
<!-- Node32 -->
<g id="node32" class="node">
<title>Node32</title>
<g id="a_node32"><a xlink:href="file_xio__rpc_8c.html" target="_top" xlink:title=" ">
<polygon fill="white" stroke="black" points="3717.5,-67.5 3717.5,-97.5 3814.5,-97.5 3814.5,-67.5 3717.5,-67.5"/>
<text text-anchor="start" x="3725.5" y="-85.5" font-family="Helvetica,sans-Serif" font-size="10.00">ee/rpc/filexio/src</text>
<text text-anchor="middle" x="3766" y="-74.5" font-family="Helvetica,sans-Serif" font-size="10.00">/fileXio_rpc.c</text>
</a>
</g>
</g>
<!-- Node1&#45;&gt;Node32 -->
<g id="edge31" class="edge">
<title>Node1&#45;&gt;Node32</title>
<path fill="none" stroke="midnightblue" d="M3462.88,-139.34C3526.26,-130.27 3623.99,-115.27 3708,-98 3711.05,-97.37 3714.18,-96.69 3717.33,-95.98"/>
<polygon fill="midnightblue" stroke="midnightblue" points="3462.03,-135.93 3452.63,-140.8 3463.02,-142.86 3462.03,-135.93"/>
</g>
<!-- Node33 -->
<g id="node33" class="node">
<title>Node33</title>
<g id="a_node33"><a xlink:href="libhdd_8c_source.html" target="_top" xlink:title=" ">
<polygon fill="white" stroke="black" points="3833,-73 3833,-92 3959,-92 3959,-73 3833,-73"/>
<text text-anchor="middle" x="3896" y="-80" font-family="Helvetica,sans-Serif" font-size="10.00">ee/rpc/hdd/src/libhdd.c</text>
</a>
</g>
</g>
<!-- Node1&#45;&gt;Node33 -->
<g id="edge32" class="edge">
<title>Node1&#45;&gt;Node33</title>
<path fill="none" stroke="midnightblue" d="M3462.59,-142.34C3546.96,-134.14 3696.73,-118.29 3824,-98 3834.58,-96.31 3845.97,-94.17 3856.49,-92.06"/>
<polygon fill="midnightblue" stroke="midnightblue" points="3462.25,-138.85 3452.63,-143.3 3462.92,-145.82 3462.25,-138.85"/>
</g>
<!-- Node34 -->
<g id="node34" class="node">
<title>Node34</title>
<g id="a_node34"><a xlink:href="sior__rpc_8c.html" target="_top" xlink:title=" ">
<polygon fill="white" stroke="black" points="3977,-67.5 3977,-97.5 4083,-97.5 4083,-67.5 3977,-67.5"/>
<text text-anchor="start" x="3985" y="-85.5" font-family="Helvetica,sans-Serif" font-size="10.00">ee/rpc/sior/src/sior</text>
<text text-anchor="middle" x="4030" y="-74.5" font-family="Helvetica,sans-Serif" font-size="10.00">_rpc.c</text>
</a>
</g>
</g>
<!-- Node1&#45;&gt;Node34 -->
<g id="edge33" class="edge">
<title>Node1&#45;&gt;Node34</title>
<path fill="none" stroke="midnightblue" d="M3462.77,-145.68C3569.91,-140.46 3786.58,-127.07 3968,-98 3970.95,-97.53 3973.96,-96.99 3977,-96.42"/>
<polygon fill="midnightblue" stroke="midnightblue" points="3462.57,-142.18 3452.75,-146.16 3462.91,-149.17 3462.57,-142.18"/>
</g>
<!-- Node35 -->
<g id="node35" class="node">
<title>Node35</title>
<g id="a_node35"><a xlink:href="hdd_8c_source.html" target="_top" xlink:title=" ">
<polygon fill="white" stroke="black" points="4101,-73 4101,-92 4221,-92 4221,-73 4101,-73"/>
<text text-anchor="middle" x="4161" y="-80" font-family="Helvetica,sans-Serif" font-size="10.00">iop/hdd/apa/src/hdd.c</text>
</a>
</g>
</g>
<!-- Node1&#45;&gt;Node35 -->
<g id="edge34" class="edge">
<title>Node1&#45;&gt;Node35</title>
<path fill="none" stroke="midnightblue" d="M3462.78,-146.65C3587.14,-142.53 3862.41,-130.3 4092,-98 4102.79,-96.48 4114.41,-94.27 4124.99,-92.02"/>
<polygon fill="midnightblue" stroke="midnightblue" points="3462.54,-143.15 3452.66,-146.97 3462.77,-150.15 3462.54,-143.15"/>
</g>
<!-- Node36 -->
<g id="node36" class="node">
<title>Node36</title>
<g id="a_node36"><a xlink:href="libapa_2src_2misc_8c_source.html" target="_top" xlink:title=" ">
<polygon fill="white" stroke="black" points="4239.5,-67.5 4239.5,-97.5 4342.5,-97.5 4342.5,-67.5 4239.5,-67.5"/>
<text text-anchor="start" x="4247.5" y="-85.5" font-family="Helvetica,sans-Serif" font-size="10.00">iop/hdd/libapa/src</text>
<text text-anchor="middle" x="4291" y="-74.5" font-family="Helvetica,sans-Serif" font-size="10.00">/misc.c</text>
</a>
</g>
</g>
<!-- Node1&#45;&gt;Node36 -->
<g id="edge35" class="edge">
<title>Node1&#45;&gt;Node36</title>
<path fill="none" stroke="midnightblue" d="M3463.02,-148.36C3605.16,-147.2 3947.04,-139.88 4230,-98 4233.02,-97.55 4236.1,-97.03 4239.2,-96.46"/>
<polygon fill="midnightblue" stroke="midnightblue" points="3462.7,-144.86 3452.73,-148.43 3462.75,-151.86 3462.7,-144.86"/>
</g>
<!-- Node37 -->
<g id="node37" class="node">
<title>Node37</title>
<g id="a_node37"><a xlink:href="libpfs_2src_2misc_8c_source.html" target="_top" xlink:title=" ">
<polygon fill="white" stroke="black" points="4361,-67.5 4361,-97.5 4461,-97.5 4461,-67.5 4361,-67.5"/>
<text text-anchor="start" x="4369" y="-85.5" font-family="Helvetica,sans-Serif" font-size="10.00">iop/hdd/libpfs/src</text>
<text text-anchor="middle" x="4411" y="-74.5" font-family="Helvetica,sans-Serif" font-size="10.00">/misc.c</text>
</a>
</g>
</g>
<!-- Node1&#45;&gt;Node37 -->
<g id="edge36" class="edge">
<title>Node1&#45;&gt;Node37</title>
<path fill="none" stroke="midnightblue" d="M3463.07,-149.28C3619.65,-150.15 4021.12,-146.95 4352,-98 4354.92,-97.57 4357.91,-97.06 4360.92,-96.49"/>
<polygon fill="midnightblue" stroke="midnightblue" points="3462.69,-145.77 3452.67,-149.21 3462.65,-152.77 3462.69,-145.77"/>
</g>
<!-- Node38 -->
<g id="node38" class="node">
<title>Node38</title>
<g id="a_node38"><a xlink:href="pfs_8c_source.html" target="_top" xlink:title=" ">
<polygon fill="white" stroke="black" points="4479,-73 4479,-92 4593,-92 4593,-73 4479,-73"/>
<text text-anchor="middle" x="4536" y="-80" font-family="Helvetica,sans-Serif" font-size="10.00">iop/hdd/pfs/src/pfs.c</text>
</a>
</g>
</g>
<!-- Node1&#45;&gt;Node38 -->
<g id="edge37" class="edge">
<title>Node1&#45;&gt;Node38</title>
<path fill="none" stroke="midnightblue" d="M3462.79,-149.27C3632.08,-150.38 4091.44,-148.12 4470,-98 4480.58,-96.6 4491.98,-94.36 4502.28,-92.06"/>
<polygon fill="midnightblue" stroke="midnightblue" points="3462.8,-145.77 3452.78,-149.2 3462.75,-152.77 3462.8,-145.77"/>
</g>
<!-- Node39 -->
<g id="node39" class="node">
<title>Node39</title>
<g id="a_node39"><a xlink:href="netcnf_8c_source.html" target="_top" xlink:title=" ">
<polygon fill="white" stroke="black" points="4611,-67.5 4611,-97.5 4719,-97.5 4719,-67.5 4611,-67.5"/>
<text text-anchor="start" x="4619" y="-85.5" font-family="Helvetica,sans-Serif" font-size="10.00">iop/network/netcnf</text>
<text text-anchor="middle" x="4665" y="-74.5" font-family="Helvetica,sans-Serif" font-size="10.00">/src/netcnf.c</text>
</a>
</g>
</g>
<!-- Node1&#45;&gt;Node39 -->
<g id="edge38" class="edge">
<title>Node1&#45;&gt;Node39</title>
<path fill="none" stroke="midnightblue" d="M3462.58,-147.33C3681.69,-143.22 4379.04,-128.06 4602,-98 4604.89,-97.61 4607.85,-97.15 4610.82,-96.64"/>
<polygon fill="midnightblue" stroke="midnightblue" points="3462.44,-143.83 3452.51,-147.52 3462.57,-150.83 3462.44,-143.83"/>
</g>
<!-- Node40 -->
<g id="node40" class="node">
<title>Node40</title>
<g id="a_node40"><a xlink:href="bin2c_8c_source.html" target="_top" xlink:title=" ">
<polygon fill="white" stroke="black" points="4737.5,-73 4737.5,-92 4862.5,-92 4862.5,-73 4737.5,-73"/>
<text text-anchor="middle" x="4800" y="-80" font-family="Helvetica,sans-Serif" font-size="10.00">tools/bin2c/src/bin2c.c</text>
</a>
</g>
</g>
<!-- Node1&#45;&gt;Node40 -->
<g id="edge39" class="edge">
<title>Node1&#45;&gt;Node40</title>
<path fill="none" stroke="midnightblue" d="M3462.68,-147.39C3696.57,-143.28 4478.92,-127.61 4728,-98 4739.65,-96.62 4752.22,-94.35 4763.56,-92.02"/>
<polygon fill="midnightblue" stroke="midnightblue" points="3462.56,-143.89 3452.62,-147.57 3462.68,-150.89 3462.56,-143.89"/>
</g>
<!-- Node41 -->
<g id="node41" class="node">
<title>Node41</title>
<g id="a_node41"><a xlink:href="tools_2gensymtab_2src_2main_8c_source.html" target="_top" xlink:title=" ">
<polygon fill="white" stroke="black" points="4881,-67.5 4881,-97.5 4997,-97.5 4997,-67.5 4881,-67.5"/>
<text text-anchor="start" x="4889" y="-85.5" font-family="Helvetica,sans-Serif" font-size="10.00">tools/gensymtab/src</text>
<text text-anchor="middle" x="4939" y="-74.5" font-family="Helvetica,sans-Serif" font-size="10.00">/main.c</text>
</a>
</g>
</g>
<!-- Node1&#45;&gt;Node41 -->
<g id="edge40" class="edge">
<title>Node1&#45;&gt;Node41</title>
<path fill="none" stroke="midnightblue" d="M3462.67,-147.8C3712.56,-144.95 4593.59,-132.61 4872,-98 4874.83,-97.65 4877.73,-97.23 4880.64,-96.77"/>
<polygon fill="midnightblue" stroke="midnightblue" points="3462.6,-144.3 3452.64,-147.92 3462.68,-151.3 3462.6,-144.3"/>
</g>
<!-- Node42 -->
<g id="node42" class="node">
<title>Node42</title>
<g id="a_node42"><a xlink:href="ps2-irxgen_8c_source.html" target="_top" xlink:title=" ">
<polygon fill="white" stroke="black" points="5015.5,-67.5 5015.5,-97.5 5128.5,-97.5 5128.5,-67.5 5015.5,-67.5"/>
<text text-anchor="start" x="5023.5" y="-85.5" font-family="Helvetica,sans-Serif" font-size="10.00">tools/ps2&#45;irxgen/src</text>
<text text-anchor="middle" x="5072" y="-74.5" font-family="Helvetica,sans-Serif" font-size="10.00">/ps2&#45;irxgen.c</text>
</a>
</g>
</g>
<!-- Node1&#45;&gt;Node42 -->
<g id="edge41" class="edge">
<title>Node1&#45;&gt;Node42</title>
<path fill="none" stroke="midnightblue" d="M3462.89,-148.05C3727.33,-146.02 4700.14,-136.06 5006,-98 5009.03,-97.62 5012.12,-97.17 5015.23,-96.67"/>
<polygon fill="midnightblue" stroke="midnightblue" points="3462.65,-144.55 3452.68,-148.13 3462.71,-151.55 3462.65,-144.55"/>
</g>
<!-- Node43 -->
<g id="node43" class="node">
<title>Node43</title>
<g id="a_node43"><a xlink:href="tools_2ps2adpcm_2src_2adpcm_8c_source.html" target="_top" xlink:title=" ">
<polygon fill="white" stroke="black" points="5146.5,-67.5 5146.5,-97.5 5257.5,-97.5 5257.5,-67.5 5146.5,-67.5"/>
<text text-anchor="start" x="5154.5" y="-85.5" font-family="Helvetica,sans-Serif" font-size="10.00">tools/ps2adpcm/src</text>
<text text-anchor="middle" x="5202" y="-74.5" font-family="Helvetica,sans-Serif" font-size="10.00">/adpcm.c</text>
</a>
</g>
</g>
<!-- Node1&#45;&gt;Node43 -->
<g id="edge42" class="edge">
<title>Node1&#45;&gt;Node43</title>
<path fill="none" stroke="midnightblue" d="M3463.24,-148.29C3741.66,-147.16 4805.16,-140.12 5138,-98 5140.71,-97.66 5143.48,-97.25 5146.27,-96.8"/>
<polygon fill="midnightblue" stroke="midnightblue" points="3462.88,-144.79 3452.89,-148.33 3462.91,-151.79 3462.88,-144.79"/>
</g>
<!-- Node44 -->
<g id="node44" class="node">
<title>Node44</title>
<g id="a_node44"><a xlink:href="tools_2ps2adpcm_2src_2main_8c_source.html" target="_top" xlink:title=" ">
<polygon fill="white" stroke="black" points="5275.5,-67.5 5275.5,-97.5 5386.5,-97.5 5386.5,-67.5 5275.5,-67.5"/>
<text text-anchor="start" x="5283.5" y="-85.5" font-family="Helvetica,sans-Serif" font-size="10.00">tools/ps2adpcm/src</text>
<text text-anchor="middle" x="5331" y="-74.5" font-family="Helvetica,sans-Serif" font-size="10.00">/main.c</text>
</a>
</g>
</g>
<!-- Node1&#45;&gt;Node44 -->
<g id="edge43" class="edge">
<title>Node1&#45;&gt;Node44</title>
<path fill="none" stroke="midnightblue" d="M3462.87,-148.45C3753.38,-147.96 4907.32,-143.16 5267,-98 5269.71,-97.66 5272.48,-97.26 5275.27,-96.8"/>
<polygon fill="midnightblue" stroke="midnightblue" points="3462.5,-144.95 3452.5,-148.47 3462.51,-151.95 3462.5,-144.95"/>
</g>
<!-- Node45 -->
<g id="node45" class="node">
<title>Node45</title>
<g id="a_node45"><a xlink:href="platform_8c_source.html" target="_top" xlink:title=" ">
<polygon fill="white" stroke="black" points="5405,-73 5405,-92 5557,-92 5557,-73 5405,-73"/>
<text text-anchor="middle" x="5481" y="-80" font-family="Helvetica,sans-Serif" font-size="10.00">tools/romimg/src/platform.c</text>
</a>
</g>
</g>
<!-- Node1&#45;&gt;Node45 -->
<g id="edge44" class="edge">
<title>Node1&#45;&gt;Node45</title>
<path fill="none" stroke="midnightblue" d="M3462.91,-148.1C3765.56,-146.11 5008.45,-135.75 5396,-98 5409.86,-96.65 5424.86,-94.37 5438.36,-92.01"/>
<polygon fill="midnightblue" stroke="midnightblue" points="3462.52,-144.61 3452.54,-148.17 3462.57,-151.61 3462.52,-144.61"/>
</g>
<!-- Node46 -->
<g id="node46" class="node">
<title>Node46</title>
<g id="a_node46"><a xlink:href="romimg_8c_source.html" target="_top" xlink:title=" ">
<polygon fill="white" stroke="black" points="5575.5,-73 5575.5,-92 5724.5,-92 5724.5,-73 5575.5,-73"/>
<text text-anchor="middle" x="5650" y="-80" font-family="Helvetica,sans-Serif" font-size="10.00">tools/romimg/src/romimg.c</text>
</a>
</g>
</g>
<!-- Node1&#45;&gt;Node46 -->
<g id="edge45" class="edge">
<title>Node1&#45;&gt;Node46</title>
<path fill="none" stroke="midnightblue" d="M3463.32,-148.27C3782.23,-146.99 5143.23,-139.18 5566,-98 5579.7,-96.67 5594.53,-94.39 5607.86,-92.03"/>
<polygon fill="midnightblue" stroke="midnightblue" points="3462.84,-144.78 3452.85,-148.31 3462.87,-151.78 3462.84,-144.78"/>
</g>
<!-- Node47 -->
<g id="node47" class="node">
<title>Node47</title>
<g id="a_node47"><a xlink:href="_sony_r_x_8c_source.html" target="_top" xlink:title=" ">
<polygon fill="white" stroke="black" points="5743,-73 5743,-92 5891,-92 5891,-73 5743,-73"/>
<text text-anchor="middle" x="5817" y="-80" font-family="Helvetica,sans-Serif" font-size="10.00">tools/romimg/src/SonyRX.c</text>
</a>
</g>
</g>
<!-- Node1&#45;&gt;Node47 -->
<g id="edge46" class="edge">
<title>Node1&#45;&gt;Node47</title>
<path fill="none" stroke="midnightblue" d="M3463.03,-148.42C3796.19,-147.83 5276.05,-142.69 5734,-98 5747.54,-96.68 5762.2,-94.4 5775.37,-92.04"/>
<polygon fill="midnightblue" stroke="midnightblue" points="3462.58,-144.92 3452.59,-148.44 3462.59,-151.92 3462.58,-144.92"/>
</g>
<!-- Node48 -->
<g id="node48" class="node">
<title>Node48</title>
<g id="a_node48"><a xlink:href="anaarg_8c_source.html" target="_top" xlink:title=" ">
<polygon fill="white" stroke="black" points="5909,-67.5 5909,-97.5 6009,-97.5 6009,-67.5 5909,-67.5"/>
<text text-anchor="start" x="5917" y="-85.5" font-family="Helvetica,sans-Serif" font-size="10.00">tools/srxfixup/src</text>
<text text-anchor="middle" x="5959" y="-74.5" font-family="Helvetica,sans-Serif" font-size="10.00">/anaarg.c</text>
</a>
</g>
</g>
<!-- Node1&#45;&gt;Node48 -->
<g id="edge47" class="edge">
<title>Node1&#45;&gt;Node48</title>
<path fill="none" stroke="midnightblue" d="M3462.8,-148.03C3835.76,-145.32 5652.61,-130.49 5900,-98 5902.93,-97.62 5905.92,-97.14 5908.93,-96.6"/>
<polygon fill="midnightblue" stroke="midnightblue" points="3462.68,-144.53 3452.71,-148.11 3462.73,-151.53 3462.68,-144.53"/>
</g>
<!-- Node49 -->
<g id="node49" class="node">
<title>Node49</title>
<g id="a_node49"><a xlink:href="elfdump_8c_source.html" target="_top" xlink:title=" ">
<polygon fill="white" stroke="black" points="6027,-67.5 6027,-97.5 6127,-97.5 6127,-67.5 6027,-67.5"/>
<text text-anchor="start" x="6035" y="-85.5" font-family="Helvetica,sans-Serif" font-size="10.00">tools/srxfixup/src</text>
<text text-anchor="middle" x="6077" y="-74.5" font-family="Helvetica,sans-Serif" font-size="10.00">/elfdump.c</text>
</a>
</g>
</g>
<!-- Node1&#45;&gt;Node49 -->
<g id="edge48" class="edge">
<title>Node1&#45;&gt;Node49</title>
<path fill="none" stroke="midnightblue" d="M3462.85,-148.1C3846.3,-145.68 5758.25,-131.99 6018,-98 6020.93,-97.62 6023.92,-97.14 6026.93,-96.61"/>
<polygon fill="midnightblue" stroke="midnightblue" points="3462.72,-144.6 3452.75,-148.16 3462.77,-151.6 3462.72,-144.6"/>
</g>
<!-- Node50 -->
<g id="node50" class="node">
<title>Node50</title>
<g id="a_node50"><a xlink:href="elflib_8c_source.html" target="_top" xlink:title=" ">
<polygon fill="white" stroke="black" points="6145,-67.5 6145,-97.5 6245,-97.5 6245,-67.5 6145,-67.5"/>
<text text-anchor="start" x="6153" y="-85.5" font-family="Helvetica,sans-Serif" font-size="10.00">tools/srxfixup/src</text>
<text text-anchor="middle" x="6195" y="-74.5" font-family="Helvetica,sans-Serif" font-size="10.00">/elflib.c</text>
</a>
</g>
</g>
<!-- Node1&#45;&gt;Node50 -->
<g id="edge49" class="edge">
<title>Node1&#45;&gt;Node50</title>
<path fill="none" stroke="midnightblue" d="M3462.68,-148.16C3855.88,-146.03 5863.82,-133.5 6136,-98 6138.93,-97.62 6141.92,-97.15 6144.93,-96.61"/>
<polygon fill="midnightblue" stroke="midnightblue" points="3462.59,-144.66 3452.61,-148.21 3462.63,-151.66 3462.59,-144.66"/>
</g>
<!-- Node51 -->
<g id="node51" class="node">
<title>Node51</title>
<g id="a_node51"><a xlink:href="mipsdis_8c_source.html" target="_top" xlink:title=" ">
<polygon fill="white" stroke="black" points="6263,-67.5 6263,-97.5 6363,-97.5 6363,-67.5 6263,-67.5"/>
<text text-anchor="start" x="6271" y="-85.5" font-family="Helvetica,sans-Serif" font-size="10.00">tools/srxfixup/src</text>
<text text-anchor="middle" x="6313" y="-74.5" font-family="Helvetica,sans-Serif" font-size="10.00">/mipsdis.c</text>
</a>
</g>
</g>
<!-- Node1&#45;&gt;Node51 -->
<g id="edge50" class="edge">
<title>Node1&#45;&gt;Node51</title>
<path fill="none" stroke="midnightblue" d="M3462.64,-148.21C3865.64,-146.37 5969.41,-135.01 6254,-98 6256.93,-97.62 6259.92,-97.15 6262.93,-96.61"/>
<polygon fill="midnightblue" stroke="midnightblue" points="3462.58,-144.71 3452.6,-148.26 3462.61,-151.71 3462.58,-144.71"/>
</g>
<!-- Node52 -->
<g id="node52" class="node">
<title>Node52</title>
<g id="a_node52"><a xlink:href="readconf_8c_source.html" target="_top" xlink:title=" ">
<polygon fill="white" stroke="black" points="6381,-67.5 6381,-97.5 6481,-97.5 6481,-67.5 6381,-67.5"/>
<text text-anchor="start" x="6389" y="-85.5" font-family="Helvetica,sans-Serif" font-size="10.00">tools/srxfixup/src</text>
<text text-anchor="middle" x="6431" y="-74.5" font-family="Helvetica,sans-Serif" font-size="10.00">/readconf.c</text>
</a>
</g>
</g>
<!-- Node1&#45;&gt;Node52 -->
<g id="edge51" class="edge">
<title>Node1&#45;&gt;Node52</title>
<path fill="none" stroke="midnightblue" d="M3463.05,-148.26C3876.81,-146.68 6075.1,-136.51 6372,-98 6374.93,-97.62 6377.92,-97.15 6380.93,-96.61"/>
<polygon fill="midnightblue" stroke="midnightblue" points="3462.73,-144.76 3452.75,-148.3 3462.76,-151.76 3462.73,-144.76"/>
</g>
<!-- Node53 -->
<g id="node53" class="node">
<title>Node53</title>
<g id="a_node53"><a xlink:href="srxfixup_8c_source.html" target="_top" xlink:title=" ">
<polygon fill="white" stroke="black" points="6499,-67.5 6499,-97.5 6599,-97.5 6599,-67.5 6499,-67.5"/>
<text text-anchor="start" x="6507" y="-85.5" font-family="Helvetica,sans-Serif" font-size="10.00">tools/srxfixup/src</text>
<text text-anchor="middle" x="6549" y="-74.5" font-family="Helvetica,sans-Serif" font-size="10.00">/srxfixup.c</text>
</a>
</g>
</g>
<!-- Node1&#45;&gt;Node53 -->
<g id="edge52" class="edge">
<title>Node1&#45;&gt;Node53</title>
<path fill="none" stroke="midnightblue" d="M3463,-148.31C3886.18,-146.99 6180.66,-138.02 6490,-98 6492.93,-97.62 6495.92,-97.15 6498.93,-96.62"/>
<polygon fill="midnightblue" stroke="midnightblue" points="3462.75,-144.81 3452.76,-148.34 3462.78,-151.81 3462.75,-144.81"/>
</g>
<!-- Node54 -->
<g id="node54" class="node">
<title>Node54</title>
<g id="a_node54"><a xlink:href="srxgen_8c_source.html" target="_top" xlink:title=" ">
<polygon fill="white" stroke="black" points="6617,-67.5 6617,-97.5 6717,-97.5 6717,-67.5 6617,-67.5"/>
<text text-anchor="start" x="6625" y="-85.5" font-family="Helvetica,sans-Serif" font-size="10.00">tools/srxfixup/src</text>
<text text-anchor="middle" x="6667" y="-74.5" font-family="Helvetica,sans-Serif" font-size="10.00">/srxgen.c</text>
</a>
</g>
</g>
<!-- Node1&#45;&gt;Node54 -->
<g id="edge53" class="edge">
<title>Node1&#45;&gt;Node54</title>
<path fill="none" stroke="midnightblue" d="M3462.79,-148.35C3894.79,-147.29 6286.17,-139.54 6608,-98 6610.93,-97.62 6613.92,-97.15 6616.93,-96.62"/>
<polygon fill="midnightblue" stroke="midnightblue" points="3462.64,-144.85 3452.65,-148.38 3462.66,-151.85 3462.64,-144.85"/>
</g>
<!-- Node23 -->
<g id="node23" class="node">
<title>Node23</title>
<g id="a_node23"><a xlink:href="osal_8c_source.html" target="_top" xlink:title=" ">
<polygon fill="white" stroke="black" points="2594.5,-0.5 2594.5,-30.5 2713.5,-30.5 2713.5,-0.5 2594.5,-0.5"/>
<text text-anchor="start" x="2602.5" y="-18.5" font-family="Helvetica,sans-Serif" font-size="10.00">ee/libpthreadglue/src</text>
<text text-anchor="middle" x="2654" y="-7.5" font-family="Helvetica,sans-Serif" font-size="10.00">/osal.c</text>
</a>
</g>
</g>
<!-- Node22&#45;&gt;Node23 -->
<g id="edge22" class="edge">
<title>Node22&#45;&gt;Node23</title>
<path fill="none" stroke="midnightblue" d="M2700.51,-60.31C2690.16,-50.56 2678.16,-39.26 2668.94,-30.58"/>
<polygon fill="midnightblue" stroke="midnightblue" points="2698.35,-63.09 2708.03,-67.4 2703.15,-57.99 2698.35,-63.09"/>
</g>
<!-- Node24 -->
<g id="node24" class="node">
<title>Node24</title>
<g id="a_node24"><a xlink:href="tls-helper_8c_source.html" target="_top" xlink:title=" ">
<polygon fill="white" stroke="black" points="2731.5,-0.5 2731.5,-30.5 2850.5,-30.5 2850.5,-0.5 2731.5,-0.5"/>
<text text-anchor="start" x="2739.5" y="-18.5" font-family="Helvetica,sans-Serif" font-size="10.00">ee/libpthreadglue/src</text>
<text text-anchor="middle" x="2791" y="-7.5" font-family="Helvetica,sans-Serif" font-size="10.00">/tls&#45;helper.c</text>
</a>
</g>
</g>
<!-- Node22&#45;&gt;Node24 -->
<g id="edge23" class="edge">
<title>Node22&#45;&gt;Node24</title>
<path fill="none" stroke="midnightblue" d="M2745.17,-60.31C2755.37,-50.56 2767.19,-39.26 2776.27,-30.58"/>
<polygon fill="midnightblue" stroke="midnightblue" points="2742.57,-57.96 2737.75,-67.4 2747.4,-63.02 2742.57,-57.96"/>
</g>
</g>
</svg>
